<?xml version="1.0" encoding="utf-8"?>
<!-- Generator: Adobe Illustrator 14.0.0, SVG Export Plug-In . SVG Version: 6.00 Build 43363)  -->
<!DOCTYPE svg PUBLIC "-//W3C//DTD SVG 1.1//EN" "http://www.w3.org/Graphics/SVG/1.1/DTD/svg11.dtd">
<svg version="1.1" id="Calque_1" xmlns="http://www.w3.org/2000/svg" xmlns:xlink="http://www.w3.org/1999/xlink" x="0px" y="0px"
	 width="52px" height="52px" viewBox="0 0 52 52" enable-background="new 0 0 52 52" xml:space="preserve">
<g>
	<path fill="#999999" d="M26,52C11.663,52,0,40.336,0,26S11.663,0,26,0s26,11.664,26,26S40.337,52,26,52 M26,2
		C12.768,2,2,12.767,2,26c0,13.232,10.768,24,24,24c13.233,0,24-10.768,24-24C50,12.767,39.233,2,26,2"/>
	<path fill="#999999" d="M39.087,23.594h-1.64c-0.355,0-1.64-0.226-2.113-1.495c-0.475-1.271,0.191-2.2,0.471-2.479
		c0.198-0.196,1.16-1.159,1.16-1.159l-3.422-3.424c0,0-0.908,0.908-1.159,1.16c-0.252,0.251-1.305,1.005-2.538,0.442
		c-1.233-0.563-1.407-1.69-1.407-2.084v-1.642h-4.894v1.641c0,0.355-0.199,1.64-1.47,2.112c-1.27,0.475-2.187-0.191-2.466-0.471
		l-1.153-1.16l-3.438,3.421l1.153,1.168c0.361,0.366,1.007,1.309,0.445,2.536c-0.562,1.23-1.676,1.392-2.071,1.392
		c-0.001,0.002-1.632,0-1.632,0v4.936h1.639c0.355,0,1.623,0.184,2.097,1.454c0.475,1.27-0.171,2.141-0.472,2.438l-1.159,1.169
		l3.437,3.418c0,0,0.91-0.909,1.161-1.161c0.253-0.252,1.297-1.006,2.529-0.443c1.233,0.563,1.399,1.688,1.399,2.083v1.641h4.894
		v-1.64c0-0.355,0.207-1.64,1.478-2.114c1.27-0.473,2.191,0.193,2.47,0.473c0.001,0,0,0,0,0l1.158,1.159l3.429-3.422l-1.152-1.158
		c-0.249-0.258-1.007-1.316-0.446-2.545c0.562-1.229,1.68-1.393,2.076-1.394c0-0.001,1.637,0,1.637,0V23.594z M26.001,30.83
		c-2.668,0-4.831-2.163-4.831-4.831c0-2.667,2.163-4.83,4.831-4.83s4.83,2.163,4.83,4.83C30.831,28.667,28.669,30.83,26.001,30.83"
		/>
</g>
</svg>
