<?xml version="1.0" encoding="utf-8"?>
<!-- Generator: Adobe Illustrator 14.0.0, SVG Export Plug-In . SVG Version: 6.00 Build 43363)  -->
<!DOCTYPE svg PUBLIC "-//W3C//DTD SVG 1.1//EN" "http://www.w3.org/Graphics/SVG/1.1/DTD/svg11.dtd">
<svg version="1.1" id="Calque_1" xmlns="http://www.w3.org/2000/svg" xmlns:xlink="http://www.w3.org/1999/xlink" x="0px" y="0px"
	 width="52px" height="52px" viewBox="0 0 52 52" enable-background="new 0 0 52 52" xml:space="preserve">
<g>
	<path fill="#999999" d="M26,52C11.663,52,0,40.336,0,26S11.663,0,26,0c14.336,0,26,11.664,26,26S40.337,52,26,52 M26,2
		C12.767,2,2,12.767,2,26c0,13.232,10.767,24,24,24c13.233,0,24-10.768,24-24C50.001,12.767,39.233,2,26,2"/>
	<path fill="#999999" d="M32.261,35.417c-1.311,1.526-3.625,2.542-6.261,2.542c-2.636,0-4.949-1.016-6.26-2.542H32.261z
		 M39.087,33.829H12.914V16.041h26.173V33.829z M36.546,18.583H15.455v12.705h21.091V18.583z"/>
</g>
</svg>
