<?xml version="1.0" encoding="utf-8"?>
<!-- Generator: Adobe Illustrator 14.0.0, SVG Export Plug-In . SVG Version: 6.00 Build 43363)  -->
<!DOCTYPE svg PUBLIC "-//W3C//DTD SVG 1.1//EN" "http://www.w3.org/Graphics/SVG/1.1/DTD/svg11.dtd">
<svg version="1.1" id="Calque_1" xmlns="http://www.w3.org/2000/svg" xmlns:xlink="http://www.w3.org/1999/xlink" x="0px" y="0px"
	 width="52px" height="52px" viewBox="0 0 52 52" enable-background="new 0 0 52 52" xml:space="preserve">
<g>
	<path fill="#999999" d="M26,52C11.663,52,0,40.336,0,26S11.663,0,26,0c14.337,0,26,11.664,26,26S40.337,52,26,52 M26,2
		C12.767,2,2,12.767,2,26c0,13.232,10.767,24,24,24s24-10.768,24-24C50,12.767,39.233,2,26,2"/>
	<path fill="#999999" d="M26.712,19.689l-2.272,1.142l-3.706-7.38l2.271-1.142L26.712,19.689z M31.785,29.795l-2.272,1.141
		l3.707,7.38l2.271-1.141L31.785,29.795z M23.121,21.627l-3.763-7.493c-1.524,0.814-5.832,2.705,0.503,15.321
		c6.364,12.673,10.306,10.328,11.985,9.547l-3.76-7.487C25.671,32.71,20.753,22.91,23.121,21.627"/>
</g>
</svg>
