<?xml version="1.0" encoding="utf-8"?>
<!-- Generator: Adobe Illustrator 19.2.1, SVG Export Plug-In . SVG Version: 6.00 Build 0)  -->
<svg version="1.1" id="Calque_1" xmlns="http://www.w3.org/2000/svg" xmlns:xlink="http://www.w3.org/1999/xlink" x="0px" y="0px"
	 width="52px" height="52px" viewBox="0 0 52 52" style="enable-background:new 0 0 52 52;" xml:space="preserve">
<g>
	<path d="M21.8,27.1c0.1,1.6,1.1,2.5,2.9,2.5c2,0,4-1.9,4.3-4.3l0.5-3.9c-0.4-0.1-1-0.2-1.7-0.2C24.3,21.2,21.6,23.9,21.8,27.1z"/>
	<path d="M26,0C11.7,0,0,11.7,0,26c0,14.3,11.7,26,26,26s26-11.7,26-26C52,11.7,40.3,0,26,0z M32.4,32.8c-1.9,0-3.4-0.9-3.7-3h-0.1
		c-1.2,2-2.9,3-5.1,3c-2.6,0-4.8-1.9-4.8-5.4c0-6.5,6-10.9,14-7.9l-0.8,7.3c-0.3,2.3,0.1,3.4,1.2,3.4c1.8,0,3.8-2.1,3.6-6.7
		c-0.3-5.1-3.9-9.1-10.2-9.1c-6.2,0-11.4,4.7-11.1,12.2c0.3,6.6,4.9,10.3,11,10.3c2.1,0,4.3-0.4,5.8-1.2c0,0,0.1,0.2,0.9,2.1
		c-2.2,1.2-4.5,1.6-7.4,1.6c-6.8,0-13-4.7-13.4-12.4c-0.4-8,5.2-15,14.5-15c7.2,0,12.6,4.8,12.9,11.4C40,29.1,36.8,32.8,32.4,32.8z"
		/>
</g>
<g>
</g>
<g>
</g>
<g>
</g>
<g>
</g>
<g>
</g>
<g>
</g>
</svg>
