<?xml version="1.0" encoding="utf-8"?>
<!-- Generator: Adobe Illustrator 20.1.0, SVG Export Plug-In . SVG Version: 6.00 Build 0)  -->
<svg version="1.0" id="Calque_1" xmlns="http://www.w3.org/2000/svg" xmlns:xlink="http://www.w3.org/1999/xlink" x="0px" y="0px"
	 viewBox="0 0 52 52" style="enable-background:new 0 0 52 52;" xml:space="preserve">
<style type="text/css">
	.st0{fill:#FFFFFF;}
</style>
<g>
	<circle cx="26" cy="26" r="26"/>
	<path d="M26,52C11.7,52,0,40.3,0,26C0,11.7,11.7,0,26,0c14.3,0,26,11.7,26,26C52,40.3,40.3,52,26,52 M26,2C12.8,2,2,12.8,2,26
		c0,13.2,10.8,24,24,24c13.2,0,24-10.8,24-24C50,12.8,39.2,2,26,2"/>
	<g>
		<path d="M24.1,38c-1.7-0.6-4.7-1.7-7.3-2.4c-0.5-0.1-1.1-0.2-1.7-0.2c-2,0-3.9,0.9-5.1,1.8V15.1c0.5-0.7,2.3-2.5,4.9-2.5
			c0.6,0,1.2,0.1,1.8,0.3c2.4,0.8,5.9,2.1,7.3,2.6V38z"/>
		<path class="st0" d="M14.9,13.6L14.9,13.6c0.5,0,1,0.1,1.5,0.2c2.1,0.7,5,1.7,6.6,2.3v20.5c-1.7-0.6-4-1.4-6-1.9
			c-0.6-0.2-1.3-0.3-1.9-0.3c-1.5,0-2.9,0.5-4.1,1v-20C11.6,14.8,13,13.6,14.9,13.6 M14.9,11.6c-3.7,0-5.9,3.2-5.9,3.2v24.7l0,0
			c0,0,2.7-3,6.1-3c0.5,0,0.9,0.1,1.4,0.2c3.7,1,8.5,2.8,8.5,2.8V14.8c0,0-4.9-1.9-8-2.9C16.3,11.7,15.6,11.6,14.9,11.6L14.9,11.6z"
			/>
	</g>
	<g>
		<path d="M28.2,15.5c1.4-0.5,4.9-1.8,7.3-2.6c0.6-0.2,1.2-0.3,1.8-0.3c2.6,0,4.4,1.9,4.9,2.5v22.2c-1.2-0.9-3-1.8-5.1-1.8
			c-0.6,0-1.1,0.1-1.7,0.2c-2.6,0.7-5.6,1.7-7.3,2.4V15.5z"/>
		<path class="st0" d="M37.3,13.6c1.9,0,3.3,1.2,3.9,1.9v20c-1.2-0.6-2.6-1-4.1-1c-0.7,0-1.3,0.1-1.9,0.3c-2,0.5-4.3,1.3-6,1.9V16.2
			c1.6-0.6,4.5-1.7,6.6-2.3C36.3,13.6,36.9,13.6,37.3,13.6 M37.3,11.6c-0.7,0-1.4,0.1-2.1,0.3c-3.2,1-8,2.9-8,2.9v24.7
			c0,0,4.8-1.8,8.5-2.8c0.5-0.1,1-0.2,1.4-0.2c3.4,0,6.1,3,6.1,3l0,0V14.8C43.2,14.8,41.1,11.6,37.3,11.6L37.3,11.6z"/>
	</g>
</g>
<g>
</g>
<g>
</g>
<g>
</g>
<g>
</g>
<g>
</g>
<g>
</g>
</svg>
