<?xml version="1.0" encoding="utf-8"?>
<!-- Generator: Adobe Illustrator 19.2.1, SVG Export Plug-In . SVG Version: 6.00 Build 0)  -->
<svg version="1.0" id="Calque_1" xmlns="http://www.w3.org/2000/svg" xmlns:xlink="http://www.w3.org/1999/xlink" x="0px" y="0px"
	 width="52px" height="52px" viewBox="0 0 52 52" style="enable-background:new 0 0 52 52;" xml:space="preserve">
<style type="text/css">
	.st0{fill:#999999;}
</style>
<g>
	<path class="st0" d="M26,52C11.7,52,0,40.3,0,26C0,11.7,11.7,0,26,0s26,11.7,26,26C52,40.3,40.3,52,26,52 M26,2C12.8,2,2,12.8,2,26
		c0,13.2,10.8,24,24,24c13.2,0,24-10.8,24-24C50,12.8,39.2,2,26,2"/>
	<path class="st0" d="M29.5,21.4c-0.4-0.1-1-0.2-1.7-0.2c-3.6,0-6.2,2.7-6,5.8c0.1,1.6,1.1,2.5,2.9,2.5c2,0,4-1.9,4.3-4.3L29.5,21.4
		z M33.1,37.8c-2.2,1.2-4.5,1.6-7.4,1.6c-6.8,0-13-4.7-13.4-12.4c-0.4-8,5.2-15,14.5-15c7.2,0,12.6,4.8,12.9,11.4
		c0.3,5.7-2.8,9.4-7.3,9.4c-1.9,0-3.4-0.9-3.7-3h-0.1c-1.2,2-2.9,3-5.1,3c-2.6,0-4.8-1.9-4.8-5.4c0-6.5,6-10.9,14-7.9l-0.8,7.3
		c-0.3,2.3,0.1,3.4,1.2,3.4c1.8,0,3.8-2.1,3.6-6.7c-0.3-5.1-3.9-9.1-10.2-9.1c-6.2,0-11.4,4.7-11.1,12.2c0.3,6.6,4.9,10.3,11,10.3
		c2.1,0,4.3-0.4,5.8-1.2C32.2,35.8,32.3,35.9,33.1,37.8"/>
</g>
<g>
</g>
<g>
</g>
<g>
</g>
<g>
</g>
<g>
</g>
<g>
</g>
</svg>
