<?xml version="1.0" encoding="utf-8"?>
<!-- Generator: Adobe Illustrator 20.1.0, SVG Export Plug-In . SVG Version: 6.00 Build 0)  -->
<svg version="1.0" id="Calque_1" xmlns="http://www.w3.org/2000/svg" xmlns:xlink="http://www.w3.org/1999/xlink" x="0px" y="0px"
	 viewBox="0 0 52 52" style="enable-background:new 0 0 52 52;" xml:space="preserve">
<style type="text/css">
	.st0{fill:#999999;}
</style>
<path class="st0" d="M26,52C11.7,52,0,40.3,0,26S11.7,0,26,0s26,11.7,26,26S40.3,52,26,52 M26,2C12.8,2,2,12.8,2,26s10.8,24,24,24
	s24-10.8,24-24S39.2,2,26,2"/>
<g>
	<path class="st0" d="M15.2,13.8c0.5,0,0.9,0.1,1.4,0.2c2,0.6,4.7,1.6,6.4,2.3v19.8c-1.7-0.6-3.8-1.3-5.6-1.8
		c-0.7-0.2-1.3-0.3-2-0.3c-1.4,0-2.7,0.4-3.8,0.9V15.5C12.2,14.9,13.4,13.8,15.2,13.8 M15.2,11.5c-3.7,0-5.9,3.2-5.9,3.2v24.7l0,0
		c0,0,2.7-3,6.1-3c0.5,0,0.9,0.1,1.4,0.2c3.7,1,8.5,2.8,8.5,2.8V14.7c0,0-4.9-1.9-8-2.9C16.5,11.6,15.8,11.5,15.2,11.5L15.2,11.5z"
		/>
</g>
<g>
	<path class="st0" d="M37.6,13.8c1.7,0,3,1.1,3.6,1.7V35c-1.1-0.5-2.4-0.9-3.8-0.9c-0.7,0-1.4,0.1-2,0.3c-1.9,0.5-4,1.2-5.6,1.8
		V16.3c1.7-0.6,4.4-1.6,6.4-2.3C36.7,13.9,37.1,13.8,37.6,13.8 M37.6,11.5c-0.7,0-1.4,0.1-2.1,0.3c-3.2,1-8,2.9-8,2.9v24.7
		c0,0,4.8-1.8,8.5-2.8c0.5-0.1,1-0.2,1.4-0.2c3.4,0,6.1,3,6.1,3l0,0V14.7C43.5,14.7,41.3,11.5,37.6,11.5L37.6,11.5z"/>
</g>
</svg>
