<?xml version="1.0" encoding="utf-8"?>
<!-- Generator: Adobe Illustrator 20.1.0, SVG Export Plug-In . SVG Version: 6.00 Build 0)  -->
<svg version="1.0" id="Calque_1" xmlns="http://www.w3.org/2000/svg" xmlns:xlink="http://www.w3.org/1999/xlink" x="0px" y="0px"
	 viewBox="0 0 52 52" style="enable-background:new 0 0 52 52;" xml:space="preserve">
<style type="text/css">
	.st0{fill:#FFFFFF;}
</style>
<circle cx="26" cy="26" r="26"/>
<polygon class="st0" points="21.8,18 17.7,25.2 21.8,32.5 30.2,32.5 34.3,25.2 30.2,18 "/>
<path class="st0" d="M31.3,33.4l3.2,5.6c4.3-2.7,7.2-7.4,7.4-12.8h-6.5L31.3,33.4z"/>
<path class="st0" d="M35.5,24.9H42c-0.2-5.4-3.1-10.1-7.4-12.8l-3.3,5.6L35.5,24.9z"/>
<path class="st0" d="M30.2,16.9l3.2-5.6c-2.2-1.2-4.7-1.8-7.4-1.8s-5.2,0.7-7.4,1.8l3.2,5.6H30.2z"/>
<path class="st0" d="M21,17.6l-3.3-5.7c-4.4,2.7-7.4,7.5-7.7,12.9h6.8L21,17.6z"/>
<path class="st0" d="M16.8,25.8H10c0.1,5.6,3.1,10.4,7.5,13.2l3.5-6L16.8,25.8z"/>
<path class="st0" d="M21.8,33.5l-3.5,6c2.3,1.2,4.9,1.9,7.6,1.9c2.8,0,5.4-0.7,7.6-1.9l-3.5-6H21.8z"/>
<path d="M26,51.9c-14.3,0-26-11.6-26-26C0,11.6,11.7,0,26,0s26,11.6,26,26C52,40.2,40.4,51.9,26,51.9 M26,2C12.8,2,2,12.7,2,25.9
	s10.8,24,24,24s24-10.7,24-24C50,12.7,39.3,2,26,2"/>
</svg>
