<?xml version="1.0" encoding="utf-8"?>
<!-- Generator: Adobe Illustrator 14.0.0, SVG Export Plug-In . SVG Version: 6.00 Build 43363)  -->
<!DOCTYPE svg PUBLIC "-//W3C//DTD SVG 1.1//EN" "http://www.w3.org/Graphics/SVG/1.1/DTD/svg11.dtd">
<svg version="1.1" id="Calque_1" xmlns="http://www.w3.org/2000/svg" xmlns:xlink="http://www.w3.org/1999/xlink" x="0px" y="0px"
	 width="52px" height="52px" viewBox="0 0 52 52" enable-background="new 0 0 52 52" xml:space="preserve">
<g>
	<path d="M26,0C11.663,0,0,11.664,0,26s11.663,26,26,26s25.999-11.664,25.999-26S40.337,0,26,0 M23.006,12.31l3.706,7.38
		l-2.272,1.142l-3.706-7.38L23.006,12.31z M19.862,29.455c-6.336-12.616-2.027-14.508-0.503-15.321l3.763,7.493
		c-2.368,1.283,2.55,11.083,4.965,9.888l3.76,7.487C30.167,39.782,26.225,42.128,19.862,29.455 M33.22,38.315l-3.705-7.381
		l2.271-1.14l3.705,7.38L33.22,38.315z"/>
</g>
</svg>
