<?xml version="1.0" encoding="utf-8"?>
<!-- Generator: Adobe Illustrator 20.1.0, SVG Export Plug-In . SVG Version: 6.00 Build 0)  -->
<svg version="1.0" id="_x3C__x21_--_Generator:_Adobe_Illustrator_20.1.0_x2C__SVG_Export_Plug-In__--_x3E_"
	 xmlns="http://www.w3.org/2000/svg" xmlns:xlink="http://www.w3.org/1999/xlink" x="0px" y="0px" viewBox="0 0 52 52"
	 style="enable-background:new 0 0 52 52;" xml:space="preserve">
<style type="text/css">
	.st0{fill:none;}
	.st1{fill:#999999;}
</style>
<path class="st0" d="M41.7,25.6h-6.4l-4.1-7.1l3.2-5.5c-0.4-0.2-0.8-0.5-1.2-0.7l-3.2,5.5h-8.2l-3.2-5.5c-0.3,0.2-0.6,0.3-0.9,0.5
	l3.2,5.6L17,25.6h-6.7c0,0.2,0,0.5,0,0.7c0,0.1,0,0.2,0,0.3H17l4.1,7.1l-3.4,5.9c0.3,0.2,0.5,0.3,0.8,0.5l3.4-5.9h8.2l3.4,5.9
	c0.3-0.2,0.6-0.4,0.9-0.6L31.3,34l4.1-7.1h6.3c0-0.2,0-0.4,0-0.7C41.7,26.1,41.7,25.8,41.7,25.6z M30.1,33.1h-8.2L17.8,26l4.1-7.1
	h8.2l4.1,7.1L30.1,33.1z"/>
<polygon class="st1" points="21.9,18.9 17.8,26 21.9,33.1 30.1,33.1 34.2,26 30.1,18.9 "/>
<path class="st1" d="M31.3,34l3.2,5.5c4.2-2.7,7-7.3,7.3-12.6h-6.3L31.3,34z"/>
<path class="st1" d="M35.4,25.6h6.4c-0.2-5.3-3-9.9-7.2-12.6l-3.2,5.5L35.4,25.6z"/>
<path class="st1" d="M30.1,17.9l3.2-5.5c-2.2-1.1-4.7-1.8-7.3-1.8c-2.6,0-5.1,0.7-7.3,1.8l3.2,5.5H30.1z"/>
<path class="st1" d="M21.1,18.5l-3.2-5.6c-4.3,2.6-7.3,7.3-7.5,12.7H17L21.1,18.5z"/>
<path class="st1" d="M17,26.6h-6.7c0.1,5.5,3,10.3,7.4,13l3.4-5.9L17,26.6z"/>
<path class="st1" d="M21.9,34.2l-3.4,5.9c2.2,1.2,4.8,1.9,7.5,1.9c2.7,0,5.3-0.7,7.5-1.9l-3.4-5.9H21.9z"/>
<path class="st1" d="M26,52.3c-14.3,0-26-11.7-26-26c0-14.3,11.7-26,26-26c14.3,0,26,11.7,26,26C52,40.6,40.4,52.3,26,52.3 M26,2.3
	C12.8,2.3,2,13,2,26.3c0,13.2,10.8,24,24,24c13.2,0,24-10.8,24-24C50,13,39.2,2.3,26,2.3"/>
<g>
</g>
<g>
</g>
<g>
</g>
<g>
</g>
<g>
</g>
<g>
</g>
</svg>
