<?xml version="1.0" encoding="utf-8"?>
<!-- Generator: Adobe Illustrator 14.0.0, SVG Export Plug-In . SVG Version: 6.00 Build 43363)  -->
<!DOCTYPE svg PUBLIC "-//W3C//DTD SVG 1.1//EN" "http://www.w3.org/Graphics/SVG/1.1/DTD/svg11.dtd">
<svg version="1.1" id="Calque_1" xmlns="http://www.w3.org/2000/svg" xmlns:xlink="http://www.w3.org/1999/xlink" x="0px" y="0px"
	 width="52px" height="52px" viewBox="0 0 52 52" enable-background="new 0 0 52 52" xml:space="preserve">
<g>
	<path d="M26,0C11.664,0,0,11.664,0,26c0,14.338,11.664,26,26,26c14.337,0,26-11.662,26-26C52,11.664,40.337,0,26,0 M39.087,28.446
		c0,0-1.636-0.001-1.636,0c-0.397,0.001-1.516,0.163-2.077,1.395c-0.562,1.228,0.197,2.286,0.446,2.544l1.152,1.159l-3.429,3.421
		l-1.158-1.159c0,0,0.001,0,0-0.001c-0.279-0.279-1.2-0.945-2.47-0.471c-1.271,0.474-1.479,1.758-1.479,2.113v1.641h-4.893v-1.642
		c0-0.395-0.166-1.52-1.399-2.083c-1.232-0.563-2.276,0.191-2.528,0.443c-0.252,0.251-1.162,1.16-1.162,1.16l-3.437-3.417
		l1.159-1.168c0.3-0.298,0.946-1.169,0.472-2.439c-0.474-1.27-1.74-1.454-2.097-1.454h-1.639v-4.936c0,0,1.631,0.001,1.632,0
		c0.396-0.001,1.51-0.161,2.072-1.392c0.561-1.229-0.084-2.17-0.446-2.537l-1.153-1.167l3.438-3.421l1.153,1.16
		c0.279,0.279,1.196,0.945,2.467,0.472c1.27-0.475,1.468-1.759,1.468-2.114v-1.64h4.894v1.641c0,0.395,0.175,1.521,1.408,2.084
		c1.233,0.563,2.286-0.19,2.537-0.442c0.252-0.251,1.16-1.16,1.16-1.16l3.422,3.426c0,0-0.962,0.961-1.16,1.158
		c-0.279,0.279-0.945,1.209-0.471,2.479c0.474,1.27,1.758,1.495,2.113,1.495h1.64V28.446z"/>
	<path d="M26.001,21.17c-2.668,0-4.831,2.163-4.831,4.831s2.163,4.83,4.831,4.83s4.83-2.162,4.83-4.83S28.669,21.17,26.001,21.17"/>
</g>
</svg>
