<?xml version="1.0" encoding="utf-8"?>
<!-- Generator: Adobe Illustrator 22.1.0, SVG Export Plug-In . SVG Version: 6.00 Build 0)  -->
<svg version="1.1" id="Calque_4" xmlns="http://www.w3.org/2000/svg" xmlns:xlink="http://www.w3.org/1999/xlink" x="0px" y="0px"
	 viewBox="0 0 150 150" style="enable-background:new 0 0 150 150;" xml:space="preserve">
<style type="text/css">
	.st0{fill:#FEE11C;stroke:#000000;stroke-miterlimit:10;}
</style>
<g id="Calque_2">
	<rect x="31.8" y="32" class="st0" width="86.2" height="76.3"/>
</g>
<g>
	<path d="M111.3,83c-2.2,0-3.9,1.8-3.9,3.9v0c0,2.2,1.8,3.9,3.9,3.9s3.9-1.8,3.9-3.9v0C115.3,84.8,113.5,83,111.3,83z"/>
	<path d="M99.2,83c-2.2,0-3.9,1.8-3.9,3.9v0c0,2.2,1.8,3.9,3.9,3.9s3.9-1.8,3.9-3.9v0C103.1,84.8,101.3,83,99.2,83z"/>
	<path d="M75.8,0.6c-41.4,0-75,33.6-75,75c0,41.4,33.6,75,75,75c41.4,0,75-33.6,75-75C150.8,34.2,117.2,0.6,75.8,0.6z M54.7,55.7
		h8.5v-9.1c0-3.9,3.1-7,7-7H81c3.8,0,7,3.1,7,7v9.1h8.3c1.7,0,2,1,0.9,2.1L77.6,77.4c-1.2,1.2-3.1,1.2-4.2,0L53.8,57.8
		C52.7,56.7,53,55.7,54.7,55.7z M117.2,100.7c0,2-1.6,3.6-3.6,3.6H38c-2,0-3.6-1.6-3.6-3.6V81c0-2,1.6-3.6,3.6-3.6h22.8
		c2,0,4.7,1.2,6,2.8l6.1,7.2c1.3,1.5,3.4,1.5,4.7,0l6.1-7.2c1.3-1.5,4-2.8,6-2.8h23.8c2,0,3.6,1.6,3.6,3.6V100.7z"/>
</g>
</svg>
