<?xml version="1.0" encoding="utf-8"?>
<!-- Generator: Adobe Illustrator 22.1.0, SVG Export Plug-In . SVG Version: 6.00 Build 0)  -->
<svg version="1.1" id="Calque_1" xmlns="http://www.w3.org/2000/svg" xmlns:xlink="http://www.w3.org/1999/xlink" x="0px" y="0px"
	 viewBox="0 0 150 157" style="enable-background:new 0 0 150 157;" xml:space="preserve">
<style type="text/css">
	.st0{fill:#CBB416;}
	.st1{fill:none;stroke:#CBB416;stroke-width:8;stroke-miterlimit:10;}
</style>
<g>
	<path class="st0" d="M78.6,66.6c-3-1.2-6.1-0.9-8.9,0.2c-0.5-0.8-1-1.5-1.5-2.3c-1.2-1.7-3.7,0.3-2.5,2c0.4,0.6,0.8,1.2,1.2,1.8
		c-0.7,0.5-1.4,1-2,1.5c-0.6-0.8-1.2-1.6-1.9-2.4c-1.3-1.6-3.9,0.4-2.5,2c0.7,0.9,1.5,1.8,2.2,2.7c-7.2,8.9-3.4,21.6,8.4,24.5
		c2,0.5,2.4-2.7,0.4-3.2c-9.2-2.2-11.5-11.8-6.7-18.6c2,2.7,3.8,5.4,5.5,8.3c1,1.8,4,0.5,3-1.3c-1.9-3.3-4-6.4-6.3-9.5
		c0.1-0.1,0.1-0.1,0.2-0.2c0.5-0.5,1.1-0.9,1.6-1.2c2.3,3.5,4.6,7,6.8,10.5c1.1,1.8,3.7-0.3,2.5-2c-2.1-3.3-4.3-6.6-6.4-9.8
		c6.2-1.8,11.9,3.4,13.1,10.6c0.4,2,3.6,1.6,3.2-0.5C86.9,74.2,84.1,68.7,78.6,66.6z"/>
	<path class="st0" d="M141.5,56.2c-1.3-4.1-4.1-7.5-7.2-10.4c-4.9-4.6-10.2-4.8-15.4-2.7c-2.4-2.6-7.4-3.1-7.4-3.1
		s-26.4-4.2-33.3-5.1c-6.8-1-12.8,4.4-12.8,4.4L53,49.1c-8.3,6.6-17.2,12.5-25.6,19.1c-10.8,8.4-4.6,15.4-4.6,15.4s26,33.5,33.2,41
		c7.2,7.5,17.3-0.5,17.3-0.5s32.7-26.6,38.5-31.5c5.8-4.8,5.5-10.9,5.5-10.9s2.3-29.1,2.8-34.8c0.1-1-0.1-1.9-0.5-2.7
		c2.1-0.9,4.4-1.4,6.7-1.1c4.1,0.6,7.4,3.9,9.9,6.9c5.2,6.2,6.2,17.6,6.5,25.4c0,0.8,1.3,0.6,1.3-0.2C143.8,70,143.1,61,141.5,56.2z
		 M101.7,83.4c0.1,0.3,0.3,0.5,0.2,0.8c-0.1,0.4-0.6,0.6-1.1,0.8c-1.1,0.3-2.3,0.6-3.4,0.9c-0.2,0.1-0.5,0.1-0.6,0.3
		c-0.3,0.4,0,1,0.2,1.4c1.2,1.9,1.9,4.2,2,6.4c-1.9-0.1-3.9,0-5.8,0.2c-0.3,0-0.6,0.1-0.8,0.3c-0.1,0.2-0.1,0.4-0.1,0.6
		c0.2,2.1,0.5,4.3,0.7,6.4c-1.7-0.9-3.6-1.2-5.5-1.1c0,2,0,4,0,6c-2-1.5-4.6-2.3-7.1-2.4c-0.9,1.7-1.7,3.4-2.6,5
		c-1.1-0.8-2.3-1.6-3.4-2.4c-0.2-0.1-0.4-0.2-0.6-0.2c-0.4,0-0.6,0.4-0.8,0.8c-0.5,1-1.2,1.9-2.2,2.5c-0.2,0.1-0.4,0.2-0.6,0.2
		c-0.2-0.1-0.3-0.3-0.4-0.4c-0.7-1.6-1.4-3.2-2.1-4.8c-0.2-0.4-0.4-0.8-0.8-0.9c-0.2,0-0.5,0.1-0.7,0.2c-1.8,1.1-3.6,2.2-5.4,3.3
		c-0.4-1.8-0.8-3.6-1.2-5.5c-1.7,0.7-3.4,1.1-5.2,1.3c-0.2,0-0.5,0-0.7-0.1c-0.2-0.2-0.2-0.5-0.2-0.7c0-1.4,0.2-2.9,0.6-4.3
		c0.2-0.6,0.3-1.2,0-1.8c-0.2-0.4-0.6-0.6-1-0.8c-1.3-0.6-2.7-1-4.1-1.2c-0.4,0-0.8-0.1-1.1-0.3c-0.6-0.5-0.3-1.5,0.1-2.1
		c0.4-0.7,1-1.4,0.8-2.1c-0.3-1.9-4-1.7-4.1-3.6c-0.1-1.3,1.8-1.8,2.6-2.9c0.7-0.9,0.5-2.3-0.1-3.3c-0.6-1-1.6-1.7-2.6-2.4
		c1.5-0.9,3-1.8,4.6-2.4c-1.6-1.5-2.9-3.4-3.8-5.5c1.4-0.2,2.8-0.4,4.1-0.6c0.1,0,0.3,0,0.4-0.1c0.3-0.2,0.1-0.6-0.1-0.9
		c-1-1.5-1.3-3.5-0.9-5.2c1.4,0,2.9,0.3,4.2,0.9c0,0,1-0.2,1.1-1.3c0.2-1.9,0.2-3.9,0.4-5.9c0-0.5,0.2-1.1,0.6-1.2
		c0.3-0.1,0.6,0.1,0.8,0.2c1.4,0.8,2.9,1.6,4.3,2.4c1-2.2,2-4.4,3.1-6.6c1.2,1.3,2.5,2.5,3.7,3.8C69,53,70.8,51,72.8,49
		c0.9,1.9,1.8,3.8,2.6,5.8c1.4-1.8,3.3-3.2,5.4-4.1c0.6,2,1.1,4.1,1.7,6.1c2.5-1.6,5.3-2.6,8.2-3c-0.2,2.4-0.6,4.9-1.4,7.2
		c1.7-0.3,3.3-0.5,5-0.6c0.4,0,0.9,0,1.3,0.3c0.5,0.4,0.4,1.2,0.3,1.8c-0.3,1.8-0.7,3.7-1,5.5c2.3,0.1,4.6,0.5,6.7,1.3
		c-0.9,1.7-2.1,3.2-3.6,4.3c1.2,1,2.4,1.9,3.5,2.9c0.2,0.2,0.5,0.4,0.5,0.7c0,0.4-0.3,0.6-0.6,0.8c-0.8,0.6-1.6,1.1-2.3,1.7
		C100.1,80.9,101,82.1,101.7,83.4z M115.3,49.3c0.6,2.7-0.4,5.9-2.7,7.5c-2.3,1.6-5.8,1.5-7.7-0.5l-0.2-0.3c-1-0.9-1.7-2.1-2.2-3.4
		c-0.5-1.2-0.8-2.6-0.4-3.8c0.4-1.4,1.5-2.4,2.7-3.2c1-0.7,2.2-1.3,3.4-1.5c1.6-0.2,3.3,0.2,4.6,1.2c0.3,0.2,0.6,0.5,0.8,0.8
		c0,0-0.1,0-0.1,0.1c-0.7,0.5,0.1,1.5,0.8,1c0,0,0,0,0.1,0C114.8,47.7,115.2,48.5,115.3,49.3z"/>
</g>
<circle class="st1" cx="75" cy="80" r="70"/>
</svg>
