<?xml version="1.0" encoding="utf-8"?>
<!-- Generator: Adobe Illustrator 22.1.0, SVG Export Plug-In . SVG Version: 6.00 Build 0)  -->
<svg version="1.1" id="Calque_1" xmlns="http://www.w3.org/2000/svg" xmlns:xlink="http://www.w3.org/1999/xlink" x="0px" y="0px"
	 viewBox="0 0 41 41" style="enable-background:new 0 0 41 41;" xml:space="preserve">
<style type="text/css">
	.st0{fill:#231F20;}
</style>
<path class="st0" d="M22.1,24.8l-0.2,0c-1.1,0-3.1-3-3.8-5.6c-0.3-1.1-0.2-1.9,0.1-2.1l0.3-0.2l-3.5-7l-0.5,0.2
	c-2.4,1.2-4.4,3.9,0.3,13.4c3,6,5.8,8.9,8.4,8.9c0.9,0,1.6-0.3,2.1-0.6l0.5-0.2l-3.5-7L22.1,24.8z"/>
<rect x="17.1" y="8.7" transform="matrix(0.8937 -0.4488 0.4488 0.8937 -3.6558 9.672)" class="st0" width="3" height="7.8"/>
<rect x="24.5" y="23.4" transform="matrix(0.8939 -0.4483 0.4483 0.8939 -9.4777 14.544)" class="st0" width="3" height="7.8"/>
<path class="st0" d="M20.5,38.7c-10,0-18.2-8.2-18.2-18.2c0-10,8.2-18.2,18.2-18.2s18.2,8.2,18.2,18.2
	C38.7,30.5,30.5,38.7,20.5,38.7 M20.5-0.1C9.2-0.1-0.1,9.2-0.1,20.5c0,11.3,9.2,20.6,20.6,20.6c11.3,0,20.6-9.2,20.6-20.6
	C41.1,9.2,31.8-0.1,20.5-0.1"/>
</svg>
