<?xml version="1.0" encoding="utf-8"?>
<!-- Generator: Adobe Illustrator 22.1.0, SVG Export Plug-In . SVG Version: 6.00 Build 0)  -->
<svg version="1.1" xmlns="http://www.w3.org/2000/svg" xmlns:xlink="http://www.w3.org/1999/xlink" x="0px" y="0px"
	 viewBox="0 0 150 157" style="enable-background:new 0 0 150 157;" xml:space="preserve">
<style type="text/css">
	.st0{display:none;}
	.st1{display:inline;}
	.st2{fill:#CBB416;}
	.st3{display:inline;fill:none;stroke:#CBB416;stroke-width:8;stroke-miterlimit:10;}
	.st4{fill:none;stroke:#BFBFBF;stroke-width:8;stroke-miterlimit:10;}
	.st5{fill:#BFBFBF;}
</style>
<g id="Calque_1" class="st0">
	<g class="st1">
		<path class="st2" d="M78.6,66.6c-3-1.2-6.1-0.9-8.9,0.2c-0.5-0.8-1-1.5-1.5-2.3c-1.2-1.7-3.7,0.3-2.5,2c0.4,0.6,0.8,1.2,1.2,1.8
			c-0.7,0.5-1.4,1-2,1.5c-0.6-0.8-1.2-1.6-1.9-2.4c-1.3-1.6-3.9,0.4-2.5,2c0.7,0.9,1.5,1.8,2.2,2.7c-7.2,8.9-3.4,21.6,8.4,24.5
			c2,0.5,2.4-2.7,0.4-3.2c-9.2-2.2-11.5-11.8-6.7-18.6c2,2.7,3.8,5.4,5.5,8.3c1,1.8,4,0.5,3-1.3c-1.9-3.3-4-6.4-6.3-9.5
			c0.1-0.1,0.1-0.1,0.2-0.2c0.5-0.5,1.1-0.9,1.6-1.2c2.3,3.5,4.6,7,6.8,10.5c1.1,1.8,3.7-0.3,2.5-2c-2.1-3.3-4.3-6.6-6.4-9.8
			c6.2-1.8,11.9,3.4,13.1,10.6c0.4,2,3.6,1.6,3.2-0.5C86.9,74.2,84.1,68.7,78.6,66.6z"/>
		<path class="st2" d="M141.5,56.2c-1.3-4.1-4.1-7.5-7.2-10.4c-4.9-4.6-10.2-4.8-15.4-2.7c-2.4-2.6-7.4-3.1-7.4-3.1
			s-26.4-4.2-33.3-5.1c-6.8-1-12.8,4.4-12.8,4.4L53,49.1c-8.3,6.6-17.2,12.5-25.6,19.1c-10.8,8.4-4.6,15.4-4.6,15.4s26,33.5,33.2,41
			c7.2,7.5,17.3-0.5,17.3-0.5s32.7-26.6,38.5-31.5c5.8-4.8,5.5-10.9,5.5-10.9s2.3-29.1,2.8-34.8c0.1-1-0.1-1.9-0.5-2.7
			c2.1-0.9,4.4-1.4,6.7-1.1c4.1,0.6,7.4,3.9,9.9,6.9c5.2,6.2,6.2,17.6,6.5,25.4c0,0.8,1.3,0.6,1.3-0.2C143.8,70,143.1,61,141.5,56.2
			z M101.7,83.4c0.1,0.3,0.3,0.5,0.2,0.8c-0.1,0.4-0.6,0.6-1.1,0.8c-1.1,0.3-2.3,0.6-3.4,0.9c-0.2,0.1-0.5,0.1-0.6,0.3
			c-0.3,0.4,0,1,0.2,1.4c1.2,1.9,1.9,4.2,2,6.4c-1.9-0.1-3.9,0-5.8,0.2c-0.3,0-0.6,0.1-0.8,0.3c-0.1,0.2-0.1,0.4-0.1,0.6
			c0.2,2.1,0.5,4.3,0.7,6.4c-1.7-0.9-3.6-1.2-5.5-1.1c0,2,0,4,0,6c-2-1.5-4.6-2.3-7.1-2.4c-0.9,1.7-1.7,3.4-2.6,5
			c-1.1-0.8-2.3-1.6-3.4-2.4c-0.2-0.1-0.4-0.2-0.6-0.2c-0.4,0-0.6,0.4-0.8,0.8c-0.5,1-1.2,1.9-2.2,2.5c-0.2,0.1-0.4,0.2-0.6,0.2
			c-0.2-0.1-0.3-0.3-0.4-0.4c-0.7-1.6-1.4-3.2-2.1-4.8c-0.2-0.4-0.4-0.8-0.8-0.9c-0.2,0-0.5,0.1-0.7,0.2c-1.8,1.1-3.6,2.2-5.4,3.3
			c-0.4-1.8-0.8-3.6-1.2-5.5c-1.7,0.7-3.4,1.1-5.2,1.3c-0.2,0-0.5,0-0.7-0.1c-0.2-0.2-0.2-0.5-0.2-0.7c0-1.4,0.2-2.9,0.6-4.3
			c0.2-0.6,0.3-1.2,0-1.8c-0.2-0.4-0.6-0.6-1-0.8c-1.3-0.6-2.7-1-4.1-1.2c-0.4,0-0.8-0.1-1.1-0.3c-0.6-0.5-0.3-1.5,0.1-2.1
			c0.4-0.7,1-1.4,0.8-2.1c-0.3-1.9-4-1.7-4.1-3.6c-0.1-1.3,1.8-1.8,2.6-2.9c0.7-0.9,0.5-2.3-0.1-3.3c-0.6-1-1.6-1.7-2.6-2.4
			c1.5-0.9,3-1.8,4.6-2.4c-1.6-1.5-2.9-3.4-3.8-5.5c1.4-0.2,2.8-0.4,4.1-0.6c0.1,0,0.3,0,0.4-0.1c0.3-0.2,0.1-0.6-0.1-0.9
			c-1-1.5-1.3-3.5-0.9-5.2c1.4,0,2.9,0.3,4.2,0.9c0,0,1-0.2,1.1-1.3c0.2-1.9,0.2-3.9,0.4-5.9c0-0.5,0.2-1.1,0.6-1.2
			c0.3-0.1,0.6,0.1,0.8,0.2c1.4,0.8,2.9,1.6,4.3,2.4c1-2.2,2-4.4,3.1-6.6c1.2,1.3,2.5,2.5,3.7,3.8C69,53,70.8,51,72.8,49
			c0.9,1.9,1.8,3.8,2.6,5.8c1.4-1.8,3.3-3.2,5.4-4.1c0.6,2,1.1,4.1,1.7,6.1c2.5-1.6,5.3-2.6,8.2-3c-0.2,2.4-0.6,4.9-1.4,7.2
			c1.7-0.3,3.3-0.5,5-0.6c0.4,0,0.9,0,1.3,0.3c0.5,0.4,0.4,1.2,0.3,1.8c-0.3,1.8-0.7,3.7-1,5.5c2.3,0.1,4.6,0.5,6.7,1.3
			c-0.9,1.7-2.1,3.2-3.6,4.3c1.2,1,2.4,1.9,3.5,2.9c0.2,0.2,0.5,0.4,0.5,0.7c0,0.4-0.3,0.6-0.6,0.8c-0.8,0.6-1.6,1.1-2.3,1.7
			C100.1,80.9,101,82.1,101.7,83.4z M115.3,49.3c0.6,2.7-0.4,5.9-2.7,7.5c-2.3,1.6-5.8,1.5-7.7-0.5l-0.2-0.3c-1-0.9-1.7-2.1-2.2-3.4
			c-0.5-1.2-0.8-2.6-0.4-3.8c0.4-1.4,1.5-2.4,2.7-3.2c1-0.7,2.2-1.3,3.4-1.5c1.6-0.2,3.3,0.2,4.6,1.2c0.3,0.2,0.6,0.5,0.8,0.8
			c0,0-0.1,0-0.1,0.1c-0.7,0.5,0.1,1.5,0.8,1c0,0,0,0,0.1,0C114.8,47.7,115.2,48.5,115.3,49.3z"/>
	</g>
	<circle class="st3" cx="75" cy="80" r="70"/>
</g>
<g id="Calque_2">
	<circle class="st4" cx="75" cy="80" r="70"/>
	<path class="st5" d="M103.2,17H83.6c-0.8,0-1.5,0.7-1.5,1.5v2.9c-0.2,0-0.4,0.2-0.4,0.4v2.3c0,0.2,0.2,0.4,0.4,0.4v1
		c-0.2,0-0.4,0.2-0.4,0.4v2.3c0,0.2,0.2,0.4,0.4,0.4v24.3c0,0.8,0.7,1.5,1.5,1.5h19.6c0.8,0,1.5-0.7,1.5-1.5V18.5
		C104.7,17.7,104,17,103.2,17z M93.3,18.2c0.2,0,0.4,0.2,0.4,0.4c0,0.2-0.2,0.4-0.4,0.4c-0.2,0-0.4-0.2-0.4-0.4
		C92.8,18.3,93,18.2,93.3,18.2z M94.7,51.8h-2.8c-0.3,0-0.6-0.3-0.6-0.6s0.3-0.6,0.6-0.6h2.8c0.3,0,0.6,0.3,0.6,0.6
		S95,51.8,94.7,51.8z M102.5,47.7c0,0.8-0.7,1.5-1.5,1.5H85.6c-0.8,0-1.5-0.7-1.5-1.5v-26c0-0.8,0.7-1.5,1.5-1.5H101
		c0.8,0,1.5,0.7,1.5,1.5V47.7z"/>
	<path class="st5" d="M81.9,23.9H53.2c-1.2,0-2.2,1-2.2,2.2v4.3c-0.3,0-0.6,0.3-0.6,0.7v3.4c0,0.4,0.3,0.6,0.6,0.7v1.5
		c-0.3,0-0.6,0.3-0.6,0.7v3.4c0,0.4,0.3,0.6,0.6,0.7v35.6c0,1.2,1,2.2,2.2,2.2h28.7c1.2,0,2.2-1,2.2-2.2V26.1
		C84.1,24.9,83.1,23.9,81.9,23.9z M67.3,25.6c0.3,0,0.6,0.3,0.6,0.6c0,0.3-0.3,0.6-0.6,0.6s-0.6-0.3-0.6-0.6
		C66.7,25.9,67,25.6,67.3,25.6z M69.4,74.9h-4.1c-0.5,0-0.9-0.4-0.9-0.9c0-0.5,0.4-0.9,0.9-0.9h4.1c0.5,0,0.9,0.4,0.9,0.9
		C70.2,74.5,69.8,74.9,69.4,74.9z M80.8,68.9c0,1.2-1,2.2-2.2,2.2H56c-1.2,0-2.2-1-2.2-2.2V30.8c0-1.2,1-2.2,2.2-2.2h22.5
		c1.2,0,2.2,1,2.2,2.2V68.9z"/>
	<path class="st5" d="M49.7,40.9H15.4c-1.5,0-2.6,1.2-2.6,2.6v5.1c-0.4,0-0.7,0.4-0.7,0.8v4.1c0,0.4,0.3,0.7,0.7,0.8v1.8
		c-0.4,0-0.7,0.4-0.7,0.8v4.1c0,0.4,0.3,0.7,0.7,0.8v42.6c0,1.5,1.2,2.6,2.6,2.6h34.3c1.5,0,2.6-1.2,2.6-2.6V43.6
		C52.3,42.1,51.2,40.9,49.7,40.9z M32.3,43c0.4,0,0.7,0.3,0.7,0.7c0,0.4-0.3,0.7-0.7,0.7c-0.4,0-0.7-0.3-0.7-0.7
		C31.5,43.3,31.9,43,32.3,43z M34.7,102.1h-4.9c-0.6,0-1.1-0.5-1.1-1.1s0.5-1.1,1.1-1.1h4.9c0.6,0,1.1,0.5,1.1,1.1
		S35.3,102.1,34.7,102.1z M48.4,94.8c0,1.5-1.2,2.6-2.6,2.6h-27c-1.5,0-2.6-1.2-2.6-2.6V49.2c0-1.5,1.2-2.6,2.6-2.6h27
		c1.5,0,2.6,1.2,2.6,2.6V94.8z"/>
	<g>
		<polygon class="st5" points="63.9,97.2 106,100.6 131.5,96 104.1,93.3 		"/>
		<g>
			<path class="st5" d="M95.5,92l-40.1,4.3l1.3,21.8l2.7,0.9l1-22.1l0.2,0l43.4-4.2l29.6,2.9l5.8-1.2L95.5,92z M56.8,99.6
				c0-0.1,0-0.3,0-0.4c0-0.1,0.1-0.2,0.1-0.3c0-0.1,0.1-0.2,0.2-0.2c0.1,0,0.1-0.1,0.2-0.1c0.1,0,0.2,0,0.2,0.1
				c0.1,0,0.1,0.1,0.2,0.2c0.1,0.1,0.1,0.2,0.1,0.3c0,0.1,0.1,0.2,0.1,0.4c0,0.1,0,0.2,0,0.4c0,0.1-0.1,0.2-0.1,0.3
				c0,0.1-0.1,0.2-0.2,0.2c-0.1,0-0.1,0.1-0.2,0.1c-0.1,0-0.2,0-0.2-0.1c-0.1,0-0.1-0.1-0.2-0.2c-0.1-0.1-0.1-0.2-0.1-0.3
				C56.9,99.9,56.9,99.7,56.8,99.6z M57.1,103c0-0.1,0-0.2,0-0.4c0-0.1,0.1-0.2,0.1-0.3c0-0.1,0.1-0.2,0.2-0.2
				c0.1,0,0.1-0.1,0.2-0.1c0.1,0,0.2,0,0.2,0.1c0.1,0,0.1,0.1,0.2,0.2c0.1,0.1,0.1,0.2,0.1,0.3c0,0.1,0.1,0.2,0.1,0.4
				c0,0.1,0,0.3,0,0.4c0,0.1-0.1,0.2-0.1,0.3c0,0.1-0.1,0.2-0.2,0.2c-0.1,0-0.1,0.1-0.2,0.1c-0.1,0-0.2,0-0.2-0.1
				c-0.1,0-0.1-0.1-0.2-0.2c-0.1-0.1-0.1-0.2-0.1-0.3C57.1,103.2,57.1,103.1,57.1,103z M57.2,106.3c0-0.1,0-0.3,0-0.4
				c0-0.1,0.1-0.2,0.1-0.3c0-0.1,0.1-0.2,0.2-0.2c0.1,0,0.1-0.1,0.2-0.1c0.1,0,0.2,0,0.2,0.1c0.1,0,0.1,0.1,0.2,0.2
				c0.1,0.1,0.1,0.2,0.1,0.3c0,0.1,0.1,0.2,0.1,0.4c0,0.1,0,0.3,0,0.4c0,0.1-0.1,0.2-0.1,0.3c0,0.1-0.1,0.2-0.2,0.2
				c-0.1,0-0.1,0.1-0.2,0.1c-0.1,0-0.2,0-0.2-0.1c-0.1,0-0.1-0.1-0.2-0.2c-0.1-0.1-0.1-0.2-0.1-0.3
				C57.2,106.6,57.2,106.5,57.2,106.3z M57.4,109.5c0-0.1,0-0.3,0-0.4c0-0.1,0.1-0.2,0.1-0.3c0-0.1,0.1-0.2,0.2-0.2
				c0.1,0,0.1-0.1,0.2-0.1c0.1,0,0.2,0,0.2,0.1c0.1,0,0.1,0.1,0.2,0.2c0.1,0.1,0.1,0.2,0.1,0.3c0,0.1,0.1,0.2,0.1,0.4
				c0,0.1,0,0.3,0,0.4c0,0.1-0.1,0.2-0.1,0.3c0,0.1-0.1,0.2-0.2,0.2c-0.1,0-0.1,0.1-0.2,0.1c-0.1,0-0.2,0-0.2-0.1
				c-0.1,0-0.1-0.1-0.2-0.2c-0.1-0.1-0.1-0.2-0.1-0.3C57.4,109.8,57.4,109.7,57.4,109.5z M57.6,112.6c0-0.1,0-0.3,0-0.4
				c0-0.1,0.1-0.2,0.1-0.3c0-0.1,0.1-0.2,0.2-0.2c0.1-0.1,0.1-0.1,0.2-0.1c0.1,0,0.2,0,0.2,0.1c0.1,0,0.1,0.1,0.2,0.2
				c0.1,0.1,0.1,0.2,0.1,0.3c0,0.1,0.1,0.2,0.1,0.4c0,0.1,0,0.2,0,0.4c0,0.1-0.1,0.2-0.1,0.3c0,0.1-0.1,0.2-0.2,0.2
				c-0.1,0-0.1,0.1-0.2,0.1c-0.1,0-0.2,0-0.2-0.1c-0.1,0-0.1-0.1-0.2-0.2c-0.1-0.1-0.1-0.2-0.1-0.3
				C57.6,112.8,57.6,112.7,57.6,112.6z M58.9,116c0,0.1-0.1,0.2-0.1,0.3c0,0.1-0.1,0.2-0.2,0.2c-0.1,0-0.1,0.1-0.2,0.1
				c-0.1,0-0.2,0-0.2-0.1c-0.1,0-0.1-0.1-0.2-0.2c-0.1-0.1-0.1-0.2-0.1-0.3c0-0.1-0.1-0.2-0.1-0.4c0-0.1,0-0.3,0-0.4
				c0-0.1,0.1-0.2,0.1-0.3c0-0.1,0.1-0.2,0.2-0.2c0.1,0,0.1-0.1,0.2-0.1c0.1,0,0.2,0,0.2,0.1c0.1,0,0.1,0.1,0.2,0.2
				c0.1,0.1,0.1,0.2,0.1,0.3c0,0.1,0.1,0.2,0.1,0.4C58.9,115.7,58.9,115.9,58.9,116z"/>
			<polygon class="st5" points="105.7,133.4 105.7,101.8 61.7,97.6 61,97.5 60,119.8 			"/>
			<polygon class="st5" points="106.3,101.7 106.3,133.7 139.5,115.3 140.7,94.8 			"/>
		</g>
	</g>
	<path class="st5" d="M31.4,75c0.4,1.4,1.1,2.4,2,3.1c0.9,0.7,2.1,1.1,3.5,1.1c0.4,0,0.8,0,1.3-0.1s0.9-0.2,1.4-0.3s0.9-0.3,1.4-0.4
		c0.5-0.2,0.9-0.4,1.3-0.5v4.2c-1,0.4-2,0.8-3,1s-2,0.3-3.1,0.3c-2.7,0-5-0.7-6.7-2.1c-1.7-1.4-2.9-3.5-3.4-6.2h-2.6v-2.9h2.3
		c0-0.2,0-0.5,0-0.7s0-0.4,0-0.6c0-0.3,0-0.6,0-0.9c0-0.3,0-0.6,0.1-0.9h-2.3V66h2.8c0.3-1.3,0.8-2.5,1.4-3.6
		c0.6-1.1,1.4-1.9,2.3-2.7S32,58.4,33,58c1.1-0.4,2.3-0.6,3.6-0.6c0.5,0,1.1,0,1.5,0c0.5,0,1,0.1,1.4,0.1s0.9,0.2,1.4,0.3
		c0.5,0.1,0.9,0.3,1.4,0.4v4.6c-1-0.5-1.9-0.8-2.9-1c-0.9-0.2-1.8-0.3-2.5-0.3c-1.4,0-2.6,0.4-3.5,1.2s-1.6,1.8-2,3.2h6.9v2.9h-7.5
		c0,0.3,0,0.5,0,0.7s0,0.5,0,0.7c0,0.3,0,0.5,0,0.8s0,0.6,0,0.9h7.5v2.9h-6.9L31.4,75L31.4,75z"/>
	<path class="st5" d="M65.3,49.3c0.2,0.9,0.7,1.5,1.2,1.9c0.6,0.4,1.3,0.7,2.1,0.7c0.2,0,0.5,0,0.8-0.1c0.3-0.1,0.6-0.1,0.9-0.2
		c0.3-0.1,0.6-0.2,0.9-0.2c0.3-0.1,0.6-0.2,0.8-0.3v2.6c-0.6,0.2-1.2,0.5-1.8,0.6c-0.6,0.1-1.2,0.2-1.9,0.2c-1.7,0-3.1-0.4-4.1-1.3
		c-1-0.9-1.8-2.1-2.1-3.8h-1.6v-1.8h1.4c0-0.1,0-0.3,0-0.4c0-0.1,0-0.2,0-0.4c0-0.2,0-0.4,0-0.6c0-0.2,0-0.4,0.1-0.6h-1.4v-1.9h1.7
		c0.2-0.8,0.5-1.5,0.9-2.2c0.4-0.7,0.9-1.2,1.4-1.7c0.6-0.5,1.2-0.8,1.8-1c0.7-0.2,1.4-0.4,2.2-0.4c0.3,0,0.7,0,0.9,0
		c0.3,0,0.6,0.1,0.9,0.1c0.2,0,0.6,0.1,0.9,0.2c0.3,0.1,0.6,0.2,0.9,0.2v2.8c-0.6-0.3-1.2-0.5-1.8-0.6c-0.6-0.1-1.1-0.2-1.5-0.2
		c-0.9,0-1.6,0.2-2.1,0.7c-0.6,0.5-1,1.1-1.2,2h4.2v1.8H65c0,0.2,0,0.3,0,0.4c0,0.1,0,0.3,0,0.4c0,0.2,0,0.3,0,0.5s0,0.4,0,0.6h4.6
		v1.8h-4.2L65.3,49.3L65.3,49.3z"/>
	<path class="st5" d="M92.2,33.4c0.2,0.6,0.5,1,0.9,1.3c0.4,0.3,0.9,0.5,1.5,0.5c0.2,0,0.3,0,0.6,0c0.2,0,0.4-0.1,0.6-0.1
		c0.2,0,0.4-0.1,0.6-0.2c0.2-0.1,0.4-0.2,0.6-0.2v1.8c-0.4,0.2-0.9,0.3-1.3,0.4C95.2,37,94.7,37,94.3,37c-1.2,0-2.2-0.3-2.9-0.9
		c-0.7-0.6-1.2-1.5-1.5-2.7h-1.1v-1.2h1c0-0.1,0-0.2,0-0.3c0-0.1,0-0.2,0-0.3c0-0.1,0-0.3,0-0.4c0-0.1,0-0.3,0-0.4h-1v-1.3H90
		c0.1-0.6,0.3-1.1,0.6-1.6c0.3-0.5,0.6-0.8,1-1.2s0.8-0.6,1.2-0.7c0.5-0.2,1-0.3,1.6-0.3c0.2,0,0.5,0,0.6,0c0.2,0,0.4,0,0.6,0
		s0.4,0.1,0.6,0.1c0.2,0,0.4,0.1,0.6,0.2v2c-0.4-0.2-0.8-0.3-1.2-0.4c-0.4-0.1-0.8-0.1-1.1-0.1c-0.6,0-1.1,0.2-1.5,0.5
		c-0.4,0.3-0.7,0.8-0.9,1.4h3v1.2h-3.2c0,0.1,0,0.2,0,0.3c0,0.1,0,0.2,0,0.3c0,0.1,0,0.2,0,0.3c0,0.1,0,0.3,0,0.4h3.2v1.2L92.2,33.4
		L92.2,33.4L92.2,33.4z"/>
	<g>
		<path class="st5" d="M101.2,69.8h6.6v-6.6h5.2v6.6h6.6v5.2h-6.6v6.6h-5.2v-6.6h-6.6V69.8z"/>
	</g>
</g>
</svg>
