<?xml version="1.0" encoding="utf-8"?>
<!-- Generator: Adobe Illustrator 22.1.0, SVG Export Plug-In . SVG Version: 6.00 Build 0)  -->
<svg version="1.1" id="Calque_2" xmlns="http://www.w3.org/2000/svg" xmlns:xlink="http://www.w3.org/1999/xlink" x="0px" y="0px"
	 viewBox="0 0 100 100" style="enable-background:new 0 0 100 100;" xml:space="preserve">
<style type="text/css">
	.st0{fill:none;stroke:#BFBFBF;stroke-width:5;stroke-miterlimit:10;}
	.st1{fill:#BFBFBF;}
</style>
<g>
	<g>
		<path class="st0" d="M14.8,47.9L31,43.8c0,0,2.3-0.2,6.3,0.1c4,0.4,23.4,4.6,24.1,4.5s4.2,2.7,2.1,4.5c-2.2,1.8-5.4,1.5-6.9,1.5
			c-7.9,0-11.1-0.4-15,0c-1.6,0.2,0.5,2.5,3.5,3.6c4.5,1.5,9.3,2.6,11.7,2.3s4.9-0.3,14.1-5c9.7-5,11.8-7.6,11.8-7.6
			c1.5-0.9,7.8-1.8,5.9,3.3c-1.2,3.3-13.6,12.9-22.4,18.9c-11,7.5-43.3,0.6-43.3,0.6s-3.9,0.4-5.3,2.1c-1.4,1.7-1.4,1.7-1.7-1.4
			C15.4,68.3,14.8,47.9,14.8,47.9z"/>
		<g>
			<path class="st1" d="M50.5,15c-4.7,0-9.1,3-10.6,7.8c-1.8,5.9,1.4,12.1,7.3,13.9c1.1,0.3,2.2,0.5,3.3,0.5c3.8,0,7.4-2,9.5-5.3
				c0.1,0,0.1,0.1,0.2,0.1L78,37.7c0.3,0.1,0.6,0.1,0.8,0.1c1.2,0,2.3-0.8,2.7-1.9c0.5-1.5-0.4-3-1.8-3.5l-0.7-0.2l0.4-1.3
				c0.3-1.1-0.3-2.2-1.3-2.5l-0.5-0.2c-0.2-0.1-0.4-0.1-0.6-0.1c-0.9,0-1.7,0.6-1.9,1.4l-0.4,1.3l-0.5-0.2l0.7-2.3
				c0.3-1.1-0.3-2.2-1.3-2.5L73,25.6c-0.2-0.1-0.4-0.1-0.6-0.1c-0.9,0-1.7,0.6-1.9,1.4l-0.7,2.3l-8-2.5c-0.1,0-0.1,0-0.2-0.1
				c0.3-5-2.8-9.6-7.8-11.2C52.7,15.2,51.6,15,50.5,15L50.5,15z M50.5,33.7c-0.7,0-1.5-0.1-2.3-0.3c-4-1.3-6.2-5.5-5-9.5
				c1-3.2,4-5.3,7.2-5.3c0.7,0,1.5,0.1,2.3,0.3c4,1.3,6.2,5.5,5,9.5C56.7,31.6,53.7,33.7,50.5,33.7L50.5,33.7z"/>
		</g>
	</g>
	<circle class="st0" cx="50" cy="50" r="47"/>
</g>
</svg>
