<?xml version="1.0" encoding="utf-8"?>
<!-- Generator: Adobe Illustrator 22.1.0, SVG Export Plug-In . SVG Version: 6.00 Build 0)  -->
<svg version="1.1" id="Calque_1" xmlns="http://www.w3.org/2000/svg" xmlns:xlink="http://www.w3.org/1999/xlink" x="0px" y="0px"
	 viewBox="0 0 150 150" style="enable-background:new 0 0 150 150;" xml:space="preserve">
<style type="text/css">
	.st0{fill:#FEE11C;stroke:#000000;stroke-miterlimit:10;}
</style>
<rect x="22.8" y="37" class="st0" width="107" height="76.3"/>
<path d="M75,0C33.6,0,0,33.6,0,75c0,41.4,33.6,75,75,75s75-33.6,75-75C150,33.6,116.4,0,75,0z M57.2,93.2H25.5v-8
	c3.5-2.8,5.9-4.6,10.7-8.7c5.5-4.8,9.4-8.7,9.4-16c0-1.8,0-6.3-4.7-6.3c-1.8,0-5,0.8-5,5.7c0,1.2,0.1,2.9,0.3,4.4l-11-0.6v-1.6
	c0-10.9,7-15.8,16.2-15.8c9.5,0,15.7,5.2,15.7,14.1c0,8-4.4,14.2-17.9,24.5c0,0,16.1-0.3,18-0.3V93.2z M76.4,94.1
	c-11.3,0-15.8-7.5-15.8-15.4l10.8-0.4c0,4.6,1.4,7.6,5.5,7.6c5.4,0,5.7-6.1,5.7-8.6c0-5.7-2.7-8-5.9-8c-3.4,0-4.4,2.3-4.8,3.6
	l-9.5-1.6l2.8-24.2h26.6l-0.7,8.7H73.7l-1.1,8.5c1-0.8,3.1-2.4,7.3-2.4c8.9,0,13.9,6.9,13.9,15.3C93.8,85.2,88.7,94.1,76.4,94.1z
	 M118.6,93.2l-6.8-11l-5.9,11H94.3l12.1-19.3L95.6,57.6h11.9l4.7,9.1l5-9.1h11.3l-10.8,16.6l12.1,19H118.6z"/>
</svg>
