<?xml version="1.0" encoding="utf-8"?>
<!-- Generator: Adobe Illustrator 22.1.0, SVG Export Plug-In . SVG Version: 6.00 Build 0)  -->
<svg version="1.1" id="Calque_2" xmlns="http://www.w3.org/2000/svg" xmlns:xlink="http://www.w3.org/1999/xlink" x="0px" y="0px"
	 viewBox="0 0 150 150" style="enable-background:new 0 0 150 150;" xml:space="preserve">
<style type="text/css">
	.st0{fill:#FEE11C;stroke:#000000;stroke-miterlimit:10;}
</style>
<rect x="27.4" y="24.1" class="st0" width="96.1" height="99.8"/>
<path d="M75,0C33.6,0,0,33.6,0,75c0,41.4,33.6,75,75,75s75-33.6,75-75C150,33.6,116.4,0,75,0z M64.9,50.6v65.5H51.5V50.9l-6.2,6.4
	l-9.4-9.5L58.5,25l22.5,22.7l-9.3,9.4L64.9,50.6z M96.3,120.1L73.8,97.4l9.3-9.4l6.9,6.5V28.9h13.4v65.3l6.2-6.4l9.4,9.5L96.3,120.1
	z"/>
</svg>
