<svg enable-background="new 0 0 261.8 91.9" viewBox="0 0 261.8 91.9" xmlns="http://www.w3.org/2000/svg" xmlns:xlink="http://www.w3.org/1999/xlink"><clipPath id="a"><path d="m0-10.8h261.8v102.7h-261.8z"/></clipPath><clipPath id="b"><path d="m0-10.8h261.8v102.7h-261.8z"/></clipPath><clipPath id="c"><path d="m0-10.8h261.8v102.7h-261.8z"/></clipPath><clipPath id="d"><path d="m0-10.8h261.8v102.7h-261.8z"/></clipPath><clipPath id="e"><path d="m0-10.8h261.8v102.7h-261.8z"/></clipPath><clipPath id="f"><path d="m0-10.8h261.8v102.7h-261.8z"/></clipPath><path d="m4.8 17.4v42.3l257-13.4v-42.4z" fill="#ffdc00"/><path d="m62.6 49.5v42.4l146.1-7.7v-42.3z" fill="#ffdc00"/><path d="m0 13.5v42.3l57.8-3v35.2l146.1-7.7v-35.2l53.1-2.8v-42.3z" fill="#496a76"/><path clip-path="url(#a)" d="m146.4 16.9c-.8-.3-1.7-.4-2.6-.4-.2 0-.3 0-.5 0-2.6.1-4.9 1.4-6.3 3.2l-6.7-2.3-6.5.3v.6l-1.6-.5-6.6.3-.1 3.3-8.5-2.8-7.5.4-.9 3-7.6-2.4-8.3.4-.3 1-2.4-.8-8.2.4-.1 2.2-5.5-1.9-8.2.4-.3.9-2.4-.8-8.2.4-.1 2.2-5.5-1.9-6.5.3v1.7l-4.4-1.5-5.9.3-.7 3.3-7.8-2.6-6.5.3-.4 14.5 10.4 3.5 11.3-.6.2-6-4.8-1.6.1-2 6.9 2.3 1.5-.1-.2 3.1 10.4 3.5 6.5-.3.1-2.2 5.5 1.9 6.5-.3v-.2l.5.2 5.1-.3.1-.2.4.1 6.5-.3.1-2.2 5.5 1.9 6.5-.3v-.2l.5.2 5.1-.3.1-.2.4.1 6.5-.3v-1.7l4.3 1.4 7.2-.4.1-.5 1.4.5 7.1-.4s-.4-1.6-.5-1.9l4.9 1.6 6.5-.3v-.6l1.6.5 6.6-.3.1-4.1 1.4.5c.6.8 1.7 2.1 3.4 2.7l10.4 3.5c.6.2 1.2.3 2 .3h.3c1-.1 1.8-.3 1.8-.3l.7-.2v-.7l.1-3.2v-1.4l-1-.4c.2-.2.4-.5.6-.8 0 0 .1-.1.1-.1s0-.1.1-.1c.1-.1.2-.3.3-.5 0-.1.1-.2.1-.2s0-.1.1-.1l10.1 3.4c.7.2 1.5.4 2.3.4h.4c.5 0 1-.1 1.5-.2.2 0 .3-.1.5-.2.3-.1.6-.2.9-.3.2-.1.3-.2.5-.3s.5-.3.7-.4.3-.3.4-.4c.2-.2.4-.3.6-.5 0 0 .1-.1.1-.1s.1-.1.1-.1l5.2 1.8 7.2-.4.1-.5 1.4.5 7.1-.4s-.5-1.7-.5-2l4.9 1.7h.9 1c1 0 2.6 0 4.4-.1.4 0 .8-.1 1.1-.1h.3c.2 0 .4-.1.7-.1.1 0 .2-.1.4-.1s.4-.1.5-.1.2-.1.3-.1c.2 0 .3-.1.4-.1s.2-.1.3-.1c.1-.1.3-.1.4-.2.1 0 .2-.1.3-.1.1-.1.2-.1.3-.2.1 0 .2-.1.2-.2.1-.1.2-.1.3-.2l.2-.2c.1-.1.2-.1.2-.2 0 0 .1-.1.1-.1.1-.1.2-.3.3-.4l5.6 1.9 11.3-.6v-1.9l4.8 1.6 11.8-.6.1-5.5-.7-.2.1-3.2h.4l.1-5.5-10.4-3.5-11.5.6-.1 3.7-9.6-3.2-6.5.3-.1 3.7-8.1-3.4c-.8-.3-1.7-.4-2.8-.4-.2 0-.5 0-.8 0-2.8.1-6.1.6-6.1.6l-.1 3.3-8.5-2.8-7.5.4-.9 2.8-7-2.3-6.5.3v.4l-1-.3-6.5.3-.1 4.2z" fill="#22243e"/><g fill="#fff"><path d="m15.2 24.5-.2 8.5 4.8-.3-.2 4.2-9.4.5.4-12.6z"/><path d="m29.2 23.8-2.3 5.5-2.8.2 1.4-5.5z"/><path d="m40.6 23.2-.3 12.6-4.7.2.4-12.6z"/><path d="m65.3 21.9-.3 12.6-4.6.2.1-7-2.3 7.1-3.7.2-2-6.9-.2 7.1-4.6.2.3-12.6 6.6-.3 1.9 6.7 2.2-7z"/><path d="m90 20.6-.3 12.6-4.6.2.1-7-2.3 7.1-3.7.2-2-6.9-.1 7.1-4.7.2.3-12.6 6.6-.3 1.9 6.7 2.2-7z"/><path d="m102.4 27.8 1.2-.1-.5-3.2zm3.9-8.1 3.3 12.4-5.2.3-.3-1.8-2.3.1-.4 1.8-5.2.3 4-12.8z"/><path d="m129.3 18.5-.3 12.6-5.2.3-2.9-5.5-.1 5.6-4.6.3.3-12.6 5.1-.3 2.9 5.4.1-5.5z"/><path clip-path="url(#b)" d="m143.1 26.2c1.1 0 2-1 2-2.3 0-1.2-.8-2.1-1.8-2.1h-.1c-1.1.1-2 1-2 2.3s.8 2.1 1.9 2.1zm7-2.5c-.1 4.2-3.4 5.8-3.6 5.9 0 0 .4 1 1.5 1h.1c.5 0 1-.2 1.1-.2l-.1 3.2s-.7.2-1.6.3h-.3c-3.5 0-5-3.2-5-3.3-3.5 0-6.1-2.6-6-6.2.1-3.7 3-6.7 7.1-6.9h.5c3.8 0 6.4 2.6 6.3 6.2"/><path clip-path="url(#b)" d="m169.4 16.4-.2 6.7c-.1 3.6-2.6 6.2-6.2 6.4-.1 0-.3 0-.4 0-3.3 0-5.6-2.3-5.5-5.8l.2-6.8 4.6-.2-.2 6.7c0 1 .5 1.5 1.3 1.5h.1c.8 0 1.4-.7 1.5-1.7l.2-6.8z"/><path d="m181.1 23.7 1.2-.1-.5-3.2zm3.9-8.1 3.3 12.4-5.2.3-.3-1.8-2.3.1-.4 1.8-5.1.3 4-12.8z"/><path clip-path="url(#c)" d="m199.7 17.8v1.6h.6c.6 0 1-.4 1-.9 0-.4-.3-.8-.9-.8h-.1zm.6 6.5c.7 0 1.1-.4 1.1-.9s-.3-.9-.9-.9h-.1-.7l-.1 1.8zm3.3-3.7c.1 0 2.8.3 2.8 3 0 2-1.7 3.7-6.1 3.9-1.7.1-3.4.1-4.3.1-.6 0-1 0-1 0l.3-12.6c.1 0 2.5-.3 5.2-.5h.7c3.5 0 4.8 1.5 4.8 3.2-.1 2.2-2.3 2.8-2.4 2.9z"/><path d="m218.1 13.8-.2 8.5 4.8-.3-.1 4.1-9.4.5.3-12.6z"/><path d="m239.3 12.7-.1 3.6-5 .2v.9l4.6-.2-.1 3.6-4.6.2v.9l5.3-.2-.1 3.6-10 .5.4-12.6z"/></g><path clip-path="url(#d)" d="m151.4 38.2c-.4-.2-.9-.3-1.3-.3h-.2c-1.1.1-2.1.6-2.9 1.4l-2.3-.8c-.4-.2-.9-.3-1.4-.3h-.2c-2.2.1-4 2-4.1 4.3 0 1.1.4 2.1 1.1 2.9.3.3.7.6 1 .7l-4.4.2-.2 7.7c-.2-.2-.5-.3-.7-.4-.1-.1-.3-.2-.4-.2h-.1c-.2-.1-.5-.2-.7-.3s-.3-.2-.5-.2c-.1 0-.1 0-.2-.1l-14.8-4.9c-1.4-.5-2.9-.7-4.4-.7-.3 0-.6 0-.8 0-4.5.2-8.4 2.4-10.9 5.7l-11.9-4-10.6.6v1.2l-3.1-1-11 .6-.6 24.5 14.8 4.9 10.4-.7v-1.2l3.1 1 11-.6.2-7.7c.8.5 1.7 1 2.7 1.3l14.8 4.9c1.4.5 2.9.7 4.4.7h.9c.5 0 1-.1 1.5-.2.2 0 .3-.1.5-.1.3-.1.6-.1.9-.2.2 0 .4-.1.5-.2.3-.1.6-.2.8-.3s.4-.1.5-.2c.3-.1.5-.2.7-.3s.4-.2.5-.3c.2-.1.5-.2.7-.4.2-.1.3-.2.5-.3s.4-.3.6-.4.3-.2.5-.3c.2-.2.4-.3.6-.5.1-.1.3-.2.4-.4.2-.2.4-.4.6-.6.1-.1.2-.2.3-.3 0 0 0 0 .1-.1.2-.2.4-.5.6-.7l11.9 4 19.9-1.1.1-3.6 9.1 3.1 19-1 .2-9.8-8.2-2.8.3-11.4-14.8-4.9-8.3.4c-.1-.2-.3-.5-.5-.7-.1-.1-.1-.1-.2-.2-.2-.1-.3-.3-.5-.4 0 0 0 0-.1 0h-.1c-.1-.1-.2-.1-.3-.2s-.3-.1-.4-.2c0 0 0 0-.1 0z" fill="#22243e"/><path d="m89.7 50.2-.6 21.8-8.9.5-5-9.4-.2 9.7-8 .4.5-21.8 9-.5 4.9 9.4.3-9.6z" fill="#fff"/><path clip-path="url(#e)" d="m117 59.7c.1-2.1-1.3-3.6-3.1-3.6h-.2c-1.8.1-3.4 1.7-3.5 3.9-.1 2.1 1.3 3.6 3.1 3.6h.2c1.8-.1 3.4-1.8 3.5-3.9m-2.3-11.2c6.7 0 11.1 4.6 10.9 10.7-.2 6.4-5.2 11.6-12.3 12-.3 0-.5 0-.8 0-6.7 0-11.1-4.6-10.9-10.7.2-6.4 5.2-11.6 12.3-12z" fill="#fff"/><path clip-path="url(#e)" d="m142.9 45.2c-1.5 0-2.6-1.1-2.5-2.6 0-1.6 1.3-2.9 2.8-3h.2c1.5 0 2.6 1.2 2.5 2.7 0 1.5-1.3 2.9-2.8 2.9z" fill="#fff"/><path d="m145.6 62.8 9.3-.5-.2 6.2-17.2.9.5-21.7 16.7-.9-.2 6.2-8.6.5-.1 1.5 8-.4-.1 6.2-8 .4z" fill="#fff"/><path clip-path="url(#f)" d="m149.6 44.9c-1.5 0-2.6-1.1-2.5-2.6 0-1.6 1.3-2.9 2.8-3h.2c1.5 0 2.6 1.2 2.5 2.7 0 1.5-1.3 2.9-2.8 2.9z" fill="#fff"/><path d="m175.1 45.7-.3 14.6 8.3-.4-.2 7.1-16.3.9.5-21.8z" fill="#fff"/></svg>