<?xml version="1.0" encoding="utf-8"?>
<!-- Generator: Adobe Illustrator 14.0.0, SVG Export Plug-In . SVG Version: 6.00 Build 43363)  -->
<!DOCTYPE svg PUBLIC "-//W3C//DTD SVG 1.1//EN" "http://www.w3.org/Graphics/SVG/1.1/DTD/svg11.dtd">
<svg version="1.1" id="Calque_1" xmlns="http://www.w3.org/2000/svg" xmlns:xlink="http://www.w3.org/1999/xlink" x="0px" y="0px"
	 width="15.764px" height="11.521px" viewBox="0 0 15.764 11.521" enable-background="new 0 0 15.764 11.521" xml:space="preserve">
<g>
	<path fill="#FAC548" d="M15.764,0l-0.488,1.531h-1.148l-2.266,7.206H3.167L0,1.476h11.363L9.601,7.17h1.153L13.007,0H15.764z
		 M9.181,9.497c-0.568,0-1.03,0.462-1.03,1.029c0,0.568,0.462,1.03,1.03,1.03c0.569,0,1.03-0.462,1.03-1.03
		C10.21,9.959,9.75,9.497,9.181,9.497 M5.777,9.497c-0.569,0-1.029,0.462-1.029,1.029c0,0.568,0.46,1.03,1.029,1.03
		s1.031-0.462,1.031-1.03C6.808,9.959,6.346,9.497,5.777,9.497"/>
</g>
</svg>
