<?xml version="1.0" encoding="utf-8"?>
<!-- Generator: Adobe Illustrator 14.0.0, SVG Export Plug-In . SVG Version: 6.00 Build 43363)  -->
<!DOCTYPE svg PUBLIC "-//W3C//DTD SVG 1.1//EN" "http://www.w3.org/Graphics/SVG/1.1/DTD/svg11.dtd">
<svg version="1.1" id="Calque_1" xmlns="http://www.w3.org/2000/svg" xmlns:xlink="http://www.w3.org/1999/xlink" x="0px" y="0px"
	 width="7.677px" height="11.521px" viewBox="0 0 7.677 11.521" enable-background="new 0 0 7.677 11.521" xml:space="preserve">
<g>
	<path fill="#FAC549" d="M1.914,10.079c-0.484,0-0.484,0-0.484-0.483v-3.84c0-0.483,0-0.483,0.484-0.483h3.838
		c0.484,0,0.484,0,0.484,0.483v3.84c0,0.483,0,0.483-0.484,0.483H1.914z M0.957,11.521H6.72c0.957,0,0.957,0,0.957-0.957V0.961
		c0-0.957,0-0.957-0.957-0.957H2.881L0,2.886v7.688C0,11.521,0,11.521,0.957,11.521"/>
</g>
</svg>
