<?xml version="1.0" encoding="utf-8"?>
<!-- Generator: Adobe Illustrator 14.0.0, SVG Export Plug-In . SVG Version: 6.00 Build 43363)  -->
<!DOCTYPE svg PUBLIC "-//W3C//DTD SVG 1.1//EN" "http://www.w3.org/Graphics/SVG/1.1/DTD/svg11.dtd">
<svg version="1.1" id="Calque_1" xmlns="http://www.w3.org/2000/svg" xmlns:xlink="http://www.w3.org/1999/xlink" x="0px" y="0px"
	 width="40.138px" height="40px" viewBox="0 0 40.138 40" enable-background="new 0 0 40.138 40" xml:space="preserve">
<g>
	<g>
		<path fill="#FFFFFF" d="M40.135,40H0.003c-0.109-6.347,2.866-13.003,11.563-17.606c-1.754-1.85-3.908-5.098-3.908-9.89
			C7.658,5.608,13.267,0,20.162,0s12.505,5.608,12.505,12.504c0,4.846-2.207,8.108-4.013,9.966
			C36.978,26.713,40.246,33.552,40.135,40 M4.298,36.092h31.538c-1.878-8.616-11.131-10.288-11.72-13.144
			c-0.649-3.148,4.643-3.52,4.643-10.444c0-4.74-3.856-8.597-8.597-8.597c-4.74,0-8.597,3.856-8.597,8.597
			c0,6.83,5.135,7.269,4.505,10.354C15.473,25.788,6.152,27.38,4.298,36.092"/>
	</g>
</g>
</svg>
