<?xml version="1.0" encoding="utf-8"?>
<!-- Generator: Adobe Illustrator 14.0.0, SVG Export Plug-In . SVG Version: 6.00 Build 43363)  -->
<!DOCTYPE svg PUBLIC "-//W3C//DTD SVG 1.1//EN" "http://www.w3.org/Graphics/SVG/1.1/DTD/svg11.dtd">
<svg version="1.1" id="Calque_1" xmlns="http://www.w3.org/2000/svg" xmlns:xlink="http://www.w3.org/1999/xlink" x="0px" y="0px"
	 width="40.618px" height="40px" viewBox="0 0 40.618 40" enable-background="new 0 0 40.618 40" xml:space="preserve">
<g>
	<g>
		<path fill="#FAC54A" d="M31.3,22.601c0.166,0.028,0.287,0.173,0.287,0.342v0.009c0,0.167-0.118,0.309-0.282,0.34
			c-3.602,0.674-12.133,2.073-13.07,2.073c-1.34,0-2.427-1.087-2.427-2.428c0-0.954,1.437-10.162,2.099-13.892
			c0.027-0.149,0.157-0.258,0.31-0.258h0.001c0.166,0,0.307,0.12,0.333,0.284l1.838,11.642L31.3,22.601z"/>
		<path fill="#FAC54A" d="M40.532,19.563c0.029,1.365-0.076,2.709-0.319,4.045l-4.246-1.092c0.159-0.986,0.223-1.966,0.196-2.953
			H40.532z M39.482,26.427l-4.249-1.091c-0.346,0.954-0.782,1.865-1.3,2.723l3.568,2.537C38.313,29.298,38.982,27.902,39.482,26.427
			 M32.183,36.261c1.331-0.955,2.539-2.069,3.599-3.315l-3.577-2.543c-0.677,0.759-1.426,1.451-2.238,2.065L32.183,36.261z
			 M0.538,20c0,11.046,8.954,20,20,20c3.302,0,6.416-0.801,9.161-2.217l-2.209-3.78c-2.095,1.041-4.454,1.628-6.952,1.628
			c-8.633,0-15.631-6.998-15.631-15.631S11.905,4.369,20.538,4.369c4.251,0,8.494,1.697,11.312,4.451l-3.481,3.481l12.25,2.236
			l-2.236-12.25L34.939,5.73C31.331,2.186,25.996,0,20.538,0C9.492,0,0.538,8.954,0.538,20"/>
	</g>
</g>
</svg>
