<?xml version="1.0" encoding="utf-8"?>
<!-- Generator: Adobe Illustrator 14.0.0, SVG Export Plug-In . SVG Version: 6.00 Build 43363)  -->
<!DOCTYPE svg PUBLIC "-//W3C//DTD SVG 1.1//EN" "http://www.w3.org/Graphics/SVG/1.1/DTD/svg11.dtd">
<svg version="1.1" id="Calque_1" xmlns="http://www.w3.org/2000/svg" xmlns:xlink="http://www.w3.org/1999/xlink" x="0px" y="0px"
	 width="29.709px" height="40px" viewBox="0 0 29.709 40" enable-background="new 0 0 29.709 40" xml:space="preserve">
<g>
	<g>
		<path fill="#FAC54A" d="M29.709,40H0V19.057h29.709V40z M17.565,27.855c0-1.497-1.213-2.71-2.71-2.71s-2.71,1.213-2.71,2.71
			c0,0.784,0.333,1.49,0.865,1.985c0.44,0.409,0.691,0.983,0.691,1.584v2.303h2.308v-2.303c0-0.601,0.251-1.175,0.691-1.584
			C17.232,29.346,17.565,28.64,17.565,27.855"/>
		<path fill="#FAC54A" d="M14.855,4.191c3.586,0,6.502,2.917,6.502,6.502v5.877h4.192v-5.877C25.549,4.797,20.752,0,14.855,0
			S4.162,4.797,4.162,10.693v5.877h4.191v-5.877C8.353,7.108,11.27,4.191,14.855,4.191"/>
	</g>
</g>
</svg>
