<?xml version="1.0" standalone="no"?>
<!DOCTYPE svg PUBLIC "-//W3C//DTD SVG 20010904//EN"
 "http://www.w3.org/TR/2001/REC-SVG-20010904/DTD/svg10.dtd">
<svg version="1.0" xmlns="http://www.w3.org/2000/svg"
 width="512.000000pt" height="512.000000pt" viewBox="0 0 512.000000 512.000000"
 preserveAspectRatio="xMidYMid meet">

<g transform="translate(0.000000,512.000000) scale(0.100000,-0.100000)"
fill="#000000" stroke="none">
<path d="M2375 5114 c-573 -86 -1006 -462 -1116 -967 -18 -82 -28 -108 -51
-130 -15 -16 -37 -46 -48 -67 -19 -37 -20 -59 -20 -342 0 -334 3 -351 66 -410
51 -47 92 -58 223 -58 l120 0 11 -42 c85 -328 187 -519 372 -694 216 -205 470
-289 768 -255 324 37 554 207 715 530 20 40 35 75 33 76 -2 2 -35 -17 -73 -42
-131 -85 -278 -139 -445 -162 -69 -10 -90 -18 -113 -39 -26 -25 -36 -27 -127
-30 -77 -3 -106 0 -134 13 -70 33 -96 117 -56 182 27 45 58 62 127 69 81 9
144 -2 188 -32 34 -23 40 -24 103 -14 267 43 478 173 617 383 l38 57 119 0
c130 0 171 11 222 58 63 59 66 76 66 410 0 283 -1 305 -20 342 -11 21 -33 51
-48 67 -23 22 -33 48 -51 130 -100 464 -479 824 -991 945 -65 15 -130 20 -275
23 -104 2 -203 1 -220 -1z m315 -254 c383 -47 692 -256 853 -577 28 -54 77
-196 77 -220 0 -8 -60 -32 -63 -25 -3 4 -17 36 -32 72 -158 377 -585 594
-1083 551 -165 -15 -295 -50 -427 -116 -211 -105 -351 -257 -439 -478 l-15
-38 -31 16 c-16 8 -30 17 -30 18 0 1 9 35 20 75 89 320 380 593 731 687 161
42 291 53 439 35z"/>
<path d="M2035 2091 c-22 -10 -96 -66 -164 -123 l-123 -105 -542 -217 c-587
-234 -575 -228 -638 -331 -102 -166 -171 -506 -213 -1050 -8 -110 -17 -215
-20 -233 l-6 -32 2231 0 2231 0 -6 33 c-3 17 -12 122 -20 232 -48 624 -131
973 -265 1119 -40 43 -59 52 -585 262 l-543 217 -124 105 c-127 107 -182 141
-231 142 -59 0 -102 -32 -279 -207 l-178 -177 -182 181 c-147 145 -191 183
-223 192 -54 15 -73 14 -120 -8z"/>
</g>
</svg>
