<?xml version="1.0" encoding="utf-8"?>
<!-- Generator: Adobe Illustrator 14.0.0, SVG Export Plug-In . SVG Version: 6.00 Build 43363)  -->
<!DOCTYPE svg PUBLIC "-//W3C//DTD SVG 1.1//EN" "http://www.w3.org/Graphics/SVG/1.1/DTD/svg11.dtd">
<svg version="1.1" id="Calque_1" xmlns="http://www.w3.org/2000/svg" xmlns:xlink="http://www.w3.org/1999/xlink" x="0px" y="0px"
	 width="43.222px" height="40px" viewBox="0 0 43.222 40" enable-background="new 0 0 43.222 40" xml:space="preserve">
<g>
	<g>
		<path fill="#FAC54A" d="M22.195,27.974c-1.18,0-2.136-0.957-2.136-2.136c0-1.18,0.957-2.136,2.136-2.136
			c1.179,0,2.135,0.956,2.135,2.136C24.331,27.017,23.374,27.974,22.195,27.974 M23.874,21.661v0.384h-3.521v-0.384
			c0-1.087,0.159-2.482,1.421-3.695c1.262-1.212,2.84-2.214,2.84-3.729c0-1.674-1.162-2.561-2.628-2.561
			c-2.442,0-2.601,2.532-2.661,3.09H15.9c0.092-2.641,1.207-6.334,6.106-6.334c4.246,0,6.155,2.844,6.155,5.51
			C28.161,18.187,23.874,18.924,23.874,21.661 M0.097,39.976c1.748-3.478,3.689-8.25,3.589-11.578C1.331,25.558,0,21.897,0,18.169
			C0,7.66,10.196-0.024,21.611-0.024c11.344,0,21.611,7.627,21.611,18.193c0,11.004-12.124,21.281-28.757,17.196
			C11.444,37.233,4.782,39.121,0.097,39.976 M21.611,4.185c-9.596,0-17.402,6.273-17.402,13.984c0,4.059,1.751,6.613,4.223,9.133
			c-0.502,3.741-1.709,6.993-1.709,6.993s3.567-0.944,7.619-3.312c15.506,4.113,24.671-4.834,24.671-12.814
			C39.013,10.458,31.207,4.185,21.611,4.185"/>
	</g>
</g>
</svg>
