<?xml version="1.0" encoding="utf-8"?>
<!-- Generator: Adobe Illustrator 16.0.0, SVG Export Plug-In . SVG Version: 6.00 Build 0)  -->
<!DOCTYPE svg PUBLIC "-//W3C//DTD SVG 1.1//EN" "http://www.w3.org/Graphics/SVG/1.1/DTD/svg11.dtd">
<svg version="1.1" id="Calque_1" xmlns="http://www.w3.org/2000/svg" xmlns:xlink="http://www.w3.org/1999/xlink" x="0px" y="0px"
	 width="94.715px" height="94.715px" viewBox="0 0 94.715 94.715" enable-background="new 0 0 94.715 94.715" xml:space="preserve">
<g>
	<path fill="#B4B4B4" d="M66.121,31.073c-8.979,0-16.283,7.305-16.283,16.284c0,3.45,1.086,6.647,2.924,9.284H41.953
		c1.838-2.637,2.924-5.834,2.924-9.284c0-8.979-7.305-16.284-16.284-16.284s-16.284,7.305-16.284,16.284
		c0,8.979,7.305,16.284,16.284,16.284h39.184v-0.084c8.205-0.832,14.63-7.78,14.63-16.2C82.406,38.378,75.101,31.073,66.121,31.073z
		 M19.309,47.357c0-5.119,4.165-9.284,9.284-9.284s9.284,4.165,9.284,9.284s-4.165,9.284-9.284,9.284S19.309,52.477,19.309,47.357z
		 M66.121,56.642c-5.118,0-9.283-4.165-9.283-9.284s4.165-9.284,9.283-9.284c5.12,0,9.285,4.165,9.285,9.284
		S71.241,56.642,66.121,56.642z"/>
	<path fill="#B4B4B4" d="M47.357,0C21.245,0,0,21.244,0,47.356C0,73.47,21.245,94.715,47.357,94.715
		c26.112,0,47.357-21.245,47.357-47.358C94.715,21.244,73.47,0,47.357,0z M47.357,87.715C25.104,87.715,7,69.61,7,47.356
		C7,25.104,25.104,7,47.357,7s40.357,18.104,40.357,40.356C87.715,69.61,69.61,87.715,47.357,87.715z"/>
</g>
</svg>
