<?xml version="1.0" encoding="utf-8"?>
<!-- Generator: Adobe Illustrator 14.0.0, SVG Export Plug-In . SVG Version: 6.00 Build 43363)  -->
<!DOCTYPE svg PUBLIC "-//W3C//DTD SVG 1.1//EN" "http://www.w3.org/Graphics/SVG/1.1/DTD/svg11.dtd">
<svg version="1.1" id="Calque_1" xmlns="http://www.w3.org/2000/svg" xmlns:xlink="http://www.w3.org/1999/xlink" x="0px" y="0px"
	 width="40.138px" height="40.001px" viewBox="0 0 40.138 40.001" enable-background="new 0 0 40.138 40.001" xml:space="preserve">
<path fill="#B3B2B2" d="M40.135,40.001H0.003c-0.109-6.346,2.866-13.002,11.563-17.606c-1.755-1.851-3.908-5.099-3.908-9.891
	C7.658,5.609,13.267,0,20.162,0c6.895,0,12.506,5.609,12.506,12.504c0,4.846-2.208,8.109-4.014,9.965
	C36.979,26.713,40.246,33.552,40.135,40.001 M4.298,36.093h31.538c-1.877-8.616-11.131-10.29-11.72-13.145
	c-0.649-3.148,4.643-3.519,4.643-10.444c0-4.74-3.855-8.597-8.597-8.597c-4.74,0-8.597,3.856-8.597,8.597
	c0,6.83,5.135,7.269,4.505,10.354C15.473,25.79,6.152,27.379,4.298,36.093"/>
</svg>
