<?xml version="1.0" encoding="utf-8"?>
<!-- Generator: Adobe Illustrator 14.0.0, SVG Export Plug-In . SVG Version: 6.00 Build 43363)  -->
<!DOCTYPE svg PUBLIC "-//W3C//DTD SVG 1.1//EN" "http://www.w3.org/Graphics/SVG/1.1/DTD/svg11.dtd">
<svg version="1.1" id="Calque_1" xmlns="http://www.w3.org/2000/svg" xmlns:xlink="http://www.w3.org/1999/xlink" x="0px" y="0px"
	 width="85.217px" height="40px" viewBox="0 0 85.217 40" enable-background="new 0 0 85.217 40" xml:space="preserve">
<g>
	<path fill="#FAC549" d="M31.989,29.643c-2.86,0-5.18,2.318-5.18,5.179S29.128,40,31.989,40c2.859,0,5.179-2.318,5.179-5.179
		S34.848,29.643,31.989,29.643"/>
	<path fill="#FAC549" d="M74.589,29.644c-2.86,0-5.179,2.317-5.179,5.178c0,2.858,2.318,5.179,5.179,5.179
		c2.859,0,5.178-2.32,5.178-5.179C79.767,31.961,77.449,29.644,74.589,29.644"/>
	<path fill="#FAC549" d="M85.162,20.999c0,0-0.074-1.646-0.228-2.452c-0.128-0.686-0.854-2.078-0.854-2.078L78.342,5.787
		c-0.749-1.196-2.449-2.129-3.582-2.129h-8.578c-1.131,0-2.05,0.918-2.05,2.051v26.355c0,1.133,0.919,2.051,2.05,2.051h0.505
		c0,0,0.745-0.097,1.024-1.03c0.774-3.091,3.548-5.394,6.878-5.394c3.258,0,5.983,2.205,6.824,5.197
		c0.349,1.268,1.754,1.227,1.754,1.227c1.133,0,2.05-0.918,2.05-2.051L85.162,20.999z M79.313,17.561H70.33
		c-0.759,0-1.375-0.619-1.375-1.374v-7.03c0-0.758,0.616-1.375,1.375-1.375h3.013c1.715,0,2.842,1.389,3.197,2.057l3.497,6.513
		C80.394,17.016,80.07,17.561,79.313,17.561"/>
	<path fill="#FAC549" d="M12.534,5.645c0-0.992-0.808-1.798-1.8-1.798H1.735c-0.991,0-1.799,0.806-1.799,1.798
		s0.808,1.799,1.799,1.799h8.999C11.726,7.443,12.534,6.637,12.534,5.645"/>
	<path fill="#FAC549" d="M13.307,10.275H7.735c-0.992,0-1.799,0.807-1.799,1.799c0,0.991,0.807,1.799,1.799,1.799h5.572
		c0.48,0,0.934-0.188,1.273-0.529c0.339-0.34,0.525-0.791,0.525-1.27C15.106,11.082,14.298,10.275,13.307,10.275"/>
	<path fill="#FAC549" d="M16.897,34.116h4.504h2.909h0.688c0.576-3.388,3.524-5.903,6.991-5.903c3.466,0,6.414,2.516,6.99,5.903
		h0.688h2.908h19.062V0h-44.74V34.116z M20.651,3.475h37.232v27.166H41.551c-1.746-3.554-5.403-5.996-9.563-5.996
		c-4.16,0-7.817,2.442-9.563,5.996h-1.775V3.475z"/>
</g>
</svg>
