<?xml version="1.0" encoding="utf-8"?>
<!-- Generator: Adobe Illustrator 14.0.0, SVG Export Plug-In . SVG Version: 6.00 Build 43363)  -->
<!DOCTYPE svg PUBLIC "-//W3C//DTD SVG 1.1//EN" "http://www.w3.org/Graphics/SVG/1.1/DTD/svg11.dtd">
<svg version="1.1" id="Calque_1" xmlns="http://www.w3.org/2000/svg" xmlns:xlink="http://www.w3.org/1999/xlink" x="0px" y="0px"
	 width="59.8px" height="40px" viewBox="0 0 59.8 40" enable-background="new 0 0 59.8 40" xml:space="preserve">
<g>
	<g>
		<path fill="#FAC54A" d="M28.721,19.976c0,3.413-0.365,6.38-1.098,8.901c-0.731,2.52-1.743,4.603-3.033,6.246
			c-1.292,1.643-2.819,2.867-4.581,3.669C18.248,39.597,16.347,40,14.307,40c-2.042,0-3.934-0.403-5.677-1.208
			c-1.743-0.802-3.256-2.026-4.538-3.669c-1.283-1.644-2.285-3.727-3.007-6.246C0.361,26.355,0,23.389,0,19.976
			c0-3.432,0.361-6.403,1.084-8.915c0.723-2.51,1.724-4.588,3.007-6.231c1.282-1.645,2.795-2.868,4.538-3.672
			c1.744-0.804,3.635-1.206,5.677-1.206c2.041,0,3.941,0.402,5.703,1.206s3.289,2.027,4.581,3.672
			c1.291,1.644,2.302,3.722,3.033,6.231C28.356,13.572,28.721,16.544,28.721,19.976 M21.812,19.976c0-2.837-0.208-5.184-0.624-7.045
			c-0.415-1.86-0.971-3.343-1.666-4.444c-0.696-1.102-1.496-1.874-2.399-2.316c-0.904-0.442-1.842-0.664-2.817-0.664
			c-0.958,0-1.884,0.222-2.777,0.664c-0.896,0.442-1.686,1.215-2.371,2.316c-0.688,1.102-1.234,2.584-1.64,4.444
			c-0.406,1.861-0.609,4.208-0.609,7.045c0,2.836,0.203,5.185,0.609,7.045s0.953,3.343,1.64,4.444
			c0.686,1.101,1.476,1.872,2.371,2.314c0.893,0.443,1.818,0.666,2.777,0.666c0.976,0,1.914-0.223,2.817-0.666
			c0.903-0.442,1.703-1.214,2.399-2.314c0.694-1.102,1.25-2.584,1.666-4.444C21.604,25.16,21.812,22.812,21.812,19.976"/>
		<path fill="#FAC54A" d="M48.229,15.098c1.481,0,2.922,0.244,4.322,0.731c1.4,0.487,2.632,1.226,3.699,2.209
			c1.065,0.985,1.924,2.207,2.574,3.671c0.65,1.464,0.976,3.172,0.976,5.122c0,1.823-0.335,3.535-1.003,5.135
			c-0.669,1.598-1.607,2.994-2.818,4.185c-1.21,1.194-2.669,2.132-4.376,2.819c-1.707,0.687-3.59,1.029-5.649,1.029
			c-2.096,0-3.975-0.335-5.636-1.004c-1.663-0.666-3.081-1.602-4.254-2.804c-1.175-1.201-2.073-2.645-2.695-4.335
			c-0.625-1.688-0.935-3.563-0.935-5.621c0-1.843,0.374-3.735,1.124-5.677c0.75-1.942,1.911-3.961,3.483-6.056l9.348-12.547
			c0.325-0.433,0.798-0.804,1.422-1.11c0.623-0.307,1.341-0.461,2.154-0.461h5.961L44.301,14.609
			c-0.252,0.309-0.492,0.597-0.719,0.868c-0.226,0.271-0.446,0.55-0.663,0.839c0.759-0.378,1.576-0.677,2.452-0.894
			S47.2,15.098,48.229,15.098 M38.854,27.264c0,1.084,0.149,2.072,0.448,2.967c0.297,0.896,0.741,1.659,1.327,2.291
			c0.588,0.633,1.315,1.123,2.182,1.477c0.867,0.351,1.87,0.526,3.007,0.526c1.065,0,2.047-0.18,2.94-0.542
			c0.894-0.36,1.661-0.866,2.303-1.516c0.641-0.651,1.142-1.414,1.504-2.289c0.361-0.877,0.542-1.83,0.542-2.858
			c0-1.12-0.172-2.128-0.515-3.023c-0.343-0.893-0.831-1.652-1.462-2.275c-0.634-0.622-1.391-1.098-2.276-1.422
			c-0.886-0.324-1.861-0.488-2.926-0.488c-1.065,0-2.032,0.181-2.899,0.542s-1.613,0.862-2.235,1.504
			c-0.625,0.642-1.102,1.401-1.437,2.275C39.021,25.308,38.854,26.252,38.854,27.264"/>
	</g>
</g>
</svg>
