<?xml version="1.0" encoding="utf-8"?>
<!-- Generator: Adobe Illustrator 22.1.0, SVG Export Plug-In . SVG Version: 6.00 Build 0)  -->
<svg version="1.1" xmlns="http://www.w3.org/2000/svg" xmlns:xlink="http://www.w3.org/1999/xlink" x="0px" y="0px"
	 viewBox="0 0 100 100" style="enable-background:new 0 0 100 100;" xml:space="preserve">
<style type="text/css">
	.st0{display:none;}
	.st1{display:inline;}
	.st2{fill:none;stroke:#BFBFBF;stroke-width:5;stroke-miterlimit:10;}
	.st3{fill:#BFBFBF;}
	.st4{display:inline;fill:none;stroke:#BFBFBF;stroke-width:5;stroke-miterlimit:10;}
	.st5{fill:#CBB418;}
</style>
<g id="Calque_2" class="st0">
	<g class="st1">
		<path class="st2" d="M14.8,47.9L31,43.8c0,0,2.3-0.2,6.3,0.1c4,0.4,23.4,4.6,24.1,4.5s4.2,2.7,2.1,4.5c-2.2,1.8-5.4,1.5-6.9,1.5
			c-7.9,0-11.1-0.4-15,0c-1.6,0.2,0.5,2.5,3.5,3.6c4.5,1.5,9.3,2.6,11.7,2.3s4.9-0.3,14.1-5c9.7-5,11.8-7.6,11.8-7.6
			c1.5-0.9,7.8-1.8,5.9,3.3c-1.2,3.3-13.6,12.9-22.4,18.9c-11,7.5-43.3,0.6-43.3,0.6s-3.9,0.4-5.3,2.1c-1.4,1.7-1.4,1.7-1.7-1.4
			C15.4,68.3,14.8,47.9,14.8,47.9z"/>
		<g>
			<path class="st3" d="M50.5,15c-4.7,0-9.1,3-10.6,7.8c-1.8,5.9,1.4,12.1,7.3,13.9c1.1,0.3,2.2,0.5,3.3,0.5c3.8,0,7.4-2,9.5-5.3
				c0.1,0,0.1,0.1,0.2,0.1L78,37.7c0.3,0.1,0.6,0.1,0.8,0.1c1.2,0,2.3-0.8,2.7-1.9c0.5-1.5-0.4-3-1.8-3.5l-0.7-0.2l0.4-1.3
				c0.3-1.1-0.3-2.2-1.3-2.5l-0.5-0.2c-0.2-0.1-0.4-0.1-0.6-0.1c-0.9,0-1.7,0.6-1.9,1.4l-0.4,1.3l-0.5-0.2l0.7-2.3
				c0.3-1.1-0.3-2.2-1.3-2.5L73,25.6c-0.2-0.1-0.4-0.1-0.6-0.1c-0.9,0-1.7,0.6-1.9,1.4l-0.7,2.3l-8-2.5c-0.1,0-0.1,0-0.2-0.1
				c0.3-5-2.8-9.6-7.8-11.2C52.7,15.2,51.6,15,50.5,15L50.5,15z M50.5,33.7c-0.7,0-1.5-0.1-2.3-0.3c-4-1.3-6.2-5.5-5-9.5
				c1-3.2,4-5.3,7.2-5.3c0.7,0,1.5,0.1,2.3,0.3c4,1.3,6.2,5.5,5,9.5C56.7,31.6,53.7,33.7,50.5,33.7L50.5,33.7z"/>
		</g>
	</g>
	<circle class="st4" cx="50" cy="50" r="47"/>
</g>
<g id="Calque_3">
	<path class="st5" d="M50,0.3C22.7,0.3,0.5,22.5,0.5,49.8S22.7,99.3,50,99.3c27.3,0,49.5-22.2,49.5-49.5S77.3,0.3,50,0.3z M5.5,49.8
		c0-24.5,20-44.5,44.5-44.5c24.5,0,44.5,20,44.5,44.5c0,9.7-3.1,18.6-8.4,25.9c-1.2-4.4-5.3-9-8.9-10.5c-3.1-1.3-6.5-1.9-9.5-3.4
		c-1.9-0.9-4.1-1.2-5.8-2.6c-1-0.8-1.2-1.6-0.3-2.7c3.4-4.1,5.8-8.6,6.8-13.9c0.7-3.9,2.4-7.5,2-11.6c-0.1-1.6-0.8-3.1-0.9-4.8
		c-0.1-3.7-4.3-8.6-8-9.1c-6.2-0.9-12.4-0.9-18.6,0c-4,0.6-8.2,5.5-8.6,9.4c-0.4,4.4-0.4,8.6,0.7,13c1.7,6.3,3.3,12.5,8.1,17.4
		c0.4,0.4,0.8,0.9,0.1,1.4c-0.9,0.6-1.6,1.5-2.7,2c-4.6,1.7-9.3,3.1-13.8,5.2c-5.3,2.5-8.4,7.1-8.9,12.9c-0.1,0.9-0.1,1.5-0.2,1.9
		C10.2,72.5,5.5,61.7,5.5,49.8z M56.6,56.5c-2.6,2-7.4,1.9-10.6-1.4c-3.1-3.2-5.1-7-6.3-11.3c-0.6-2.1-0.1-3.7,1.7-3.9
		c3.8-0.4,7.2-2.9,10.9-2c4.3-0.6,7.8,1.6,11.7,2.3c1.3,0.2,1.5,1.1,1.2,2.2C63.9,48.3,61.1,53,56.6,56.5z M57.4,64
		c-0.7,0.5-1.6,0.6-2.4,0.6c-2.4-0.2-4.7-0.3-7.1-0.5c-0.6-0.1-1.3-0.3-1.8-0.5c-0.6-0.3-1.2-0.9-0.9-1.7c0.2-0.7,0.7-1.2,1.5-1.3
		c0.4,0,0.9-0.1,1.2,0.1c2.8,1.3,5.6,1,8.4,0.1c1.1-0.4,2.4-0.4,2.9,0.9C59.7,63,58.4,63.4,57.4,64z M37.8,28
		c0.1-3.6,2.4-6.6,6.6-7.2c6.3-1,12.8-1.6,18.9,1.2c1.5,0.7,2.4,2.1,2.9,3.7c0.2,0.5,0.2,1.1,0.4,1.6c0.9,3.2,0.7,3.1-2.5,2.7
		c-3.4-0.4-6.8-1.2-10.1-1.8c-2.8-0.5-5.6,0.4-8.3,1.1c-2.2,0.6-4.4,0.4-6.6,1C37.2,30.8,38.1,28.8,37.8,28z M39.4,34.3
		c4.3-1.3,8.7-2.2,13.2-2.7c1.7-0.2,3.2,0.5,4.7,0.9c2.6,0.6,5.3,0.5,7.8,1.7c0.6,0.3,1.3,0.6,1.3,1.5c-0.3,1.3-1.1,1-2.1,0.9
		c-4.7-0.8-9.2-2.5-14.1-2.2c-3.5,0.2-6.5,1.8-9.8,2.3c-1,0.1-2,0.8-2.5-0.6C37.5,34.9,38.5,34.6,39.4,34.3z M47.8,94.3
		c0.7-0.2,1.2-0.8,1.2-1.9c0.2-1.9,0.2-3.7-1.4-5.3c-2.1-2.2-2.3-4.3-0.8-6.6c0.2,3.6,2.7,2.9,4.9,3c2.2,0.1,4.5,0.3,4.6-3.3
		c1.6,2.9,1.3,5.5-0.8,7.2c-1.5,1.1-1.9,2.2-1.2,3.9c0.2,0.4,0.2,1,0.2,1.4c0,0.6,0.2,1.1,0.5,1.3c-1.7,0.2-3.3,0.3-5,0.3
		C49.3,94.3,48.5,94.3,47.8,94.3z M73.3,87.7c0-1,0-2,0-2.9c0-1.1-0.5-1.7-1.7-1.7c-1.2,0-1.6,0.7-1.6,1.7c0,1.8,0,3.2,0,4.7
		c-3.8,1.9-8,3.3-12.3,4.1c0.2-0.3,0.2-0.7,0.2-1.1c-0.2-1.6,0.4-3,1.2-4.3c2.8-4.6,2.3-8.6-1.6-12.4c-0.8-0.8-1.6-2-3-1.6
		c-1.3,0.4-0.7,1.8-1,2.7c-0.1,0.2-0.1,0.4-0.2,0.6c-0.5,1-0.2,2.8-2.1,2.5c-1.9-0.2-1.1-1.8-1.3-2.8c0-0.1,0-0.3-0.1-0.4
		c-0.3-0.9-0.4-2-1.5-2.3c-1-0.3-1.7,0.6-2.4,1.1c-4.2,3.3-4.2,9.8-1.5,13.1c0.8,1,1.4,2.1,1.1,3.4c-0.2,0.8-0.4,1.6,0.4,2
		c-4.6-0.4-8.9-1.5-13-3.2c0.1-0.6,0.2-1.2,0.2-1.9c0-1.5,0-3-0.2-4.6c-0.1-0.8-0.5-1.4-1.5-1.4c-1,0-1.3,0.7-1.3,1.6
		c0,1.4,0,2.8,0,4.2c0,0,0,0,0,0c0,0.3,0,0.6,0,0.9c-3.3-1.6-6.3-3.6-9.1-6c0-1.7,0.1-0.1,0-3.4C21,74.4,24,70.7,29,68.4
		c3.3-1.5,6.8-2.6,10.2-4.1c1.5-0.6,2.5-0.6,3.4,0.8c1.5,2.2,3.5,3.3,6.3,3c2-0.2,4.1-0.2,6.1,0c2.9,0.2,5.3-0.3,6.8-3.1
		c0.6-1.1,1.7-1.5,2.9-0.8c2.4,1.5,5.2,2.1,7.8,3c5.6,2,10.4,5.6,10.6,12.2C80.3,82.7,77,85.5,73.3,87.7z"/>
</g>
</svg>
