<?xml version="1.0" encoding="utf-8"?>
<!-- Generator: Adobe Illustrator 14.0.0, SVG Export Plug-In . SVG Version: 6.00 Build 43363)  -->
<!DOCTYPE svg PUBLIC "-//W3C//DTD SVG 1.1//EN" "http://www.w3.org/Graphics/SVG/1.1/DTD/svg11.dtd">
<svg version="1.1" id="Calque_1" xmlns="http://www.w3.org/2000/svg" xmlns:xlink="http://www.w3.org/1999/xlink" x="0px" y="0px"
	 width="120.26px" height="120.776px" viewBox="0 0 120.26 120.776" enable-background="new 0 0 120.26 120.776"
	 xml:space="preserve">
<path fill="#363636" d="M60.129,0C26.921,0,0,27.036,0,60.387c0,33.351,26.921,60.389,60.129,60.389
	c33.209,0,60.131-27.038,60.131-60.389C120.26,27.036,93.338,0,60.129,0z M43.716,40.126c0-7.816,6.357-14.174,14.174-14.174h3.762
	c7.816,0,14.174,6.358,14.174,14.174v9.71h-6.687v-9.71c0-4.129-3.358-7.488-7.487-7.488H57.89c-4.129,0-7.489,3.358-7.489,7.488
	v9.71h-6.685V40.126z M81.38,91.651c0,1.338-1.078,2.423-2.409,2.423H41.292c-1.331,0-2.41-1.084-2.41-2.423V55.073
	c0-1.338,1.079-2.424,2.41-2.424h37.679c1.331,0,2.409,1.085,2.409,2.424V91.651z"/>
<g display="none">
	<path display="inline" fill="#363636" d="M67.539,28.696H52.721c-2.327,0-4.213,1.887-4.213,4.214c0,2.326,1.886,4.214,4.213,4.214
		h14.817c2.327,0,4.213-1.888,4.213-4.214C71.751,30.583,69.866,28.696,67.539,28.696z"/>
	<rect x="54.163" y="60.704" display="inline" fill="#363636" width="4.295" height="28.975"/>
	<path display="inline" fill="#363636" d="M60.129,0C26.92,0,0,27.036,0,60.387c0,33.351,26.921,60.389,60.13,60.389
		c33.208,0,60.131-27.038,60.131-60.389C120.26,27.036,93.337,0,60.129,0z M80.007,53.837c0,1.252-1.008,2.268-2.253,2.268H66.25
		v35.254c0,1.245-1.017,2.254-2.268,2.254H53.439c-1.252,0-2.267-1.009-2.267-0.286V56.105h-8.667c-1.244,0-2.253-1.016-2.253-2.268
		V28.219c0-1.252,1.009-2.267,2.253-2.267h35.249c1.245,0,2.253,1.015,2.253,2.267V53.837z"/>
</g>
</svg>
