<?xml version="1.0" encoding="utf-8"?>
<!-- Generator: Adobe Illustrator 16.0.0, SVG Export Plug-In . SVG Version: 6.00 Build 0)  -->
<!DOCTYPE svg PUBLIC "-//W3C//DTD SVG 1.1//EN" "http://www.w3.org/Graphics/SVG/1.1/DTD/svg11.dtd">
<svg version="1.1" id="Calque_1" xmlns="http://www.w3.org/2000/svg" xmlns:xlink="http://www.w3.org/1999/xlink" x="0px" y="0px"
	 width="87.354px" height="94.944px" viewBox="0 0 87.354 94.944" enable-background="new 0 0 87.354 94.944" xml:space="preserve">
<g>
	<path fill="#B4B4B4" d="M85.039,28.396c1.278,0,2.314-1.036,2.314-2.314v-10.31c0-1.278-1.036-2.314-2.314-2.314h-6.124V11.79
		C78.915,5.289,73.626,0,67.124,0H11.79C5.289,0,0,5.289,0,11.79v71.364c0,6.501,5.289,11.79,11.79,11.79h55.334
		c6.502,0,11.791-5.289,11.791-11.79V67.025h6.124c1.278,0,2.314-1.036,2.314-2.314v-10.31c0-1.278-1.036-2.314-2.314-2.314h-6.124
		v-4.615h6.124c1.278,0,2.314-1.036,2.314-2.314v-10.31c0-1.278-1.036-2.314-2.314-2.314h-6.124v-4.138H85.039z M71.915,83.154
		c0,2.641-2.149,4.79-4.791,4.79H11.79c-2.642,0-4.79-2.149-4.79-4.79V11.79C7,9.148,9.148,7,11.79,7h55.334
		c2.642,0,4.791,2.148,4.791,4.79V83.154z"/>
	<path fill="#B4B4B4" d="M61.052,53.096c-0.285-0.211-0.638-0.506-1.034-0.834c-2.115-1.751-4.748-3.931-7.522-3.931l-0.194,0.003
		c-2.868,0.109-4.646,2.144-5.71,3.36c-0.198,0.227-0.389,0.45-0.58,0.642l-0.217,0.216c-0.848-0.513-1.766-1.103-2.143-1.368
		l-0.115-0.079c-1.631-1.066-3.053-2.174-4.225-3.292c-1.275-1.218-2.413-2.528-3.387-3.903c-0.247-0.346-0.859-1.273-1.39-2.123
		c0.637-0.737,1.288-1.529,1.659-2.083c1.452-2.211,3.646-5.553,0.859-9.967c-0.787-1.222-1.679-2.114-2.602-3.036l-0.513-0.49
		c-1.254-1.201-2.55-2.443-4.089-3.542l-0.13-0.101c-1.067-0.826-2.844-2.202-4.913-2.542c-1.034-0.193-2.081-0.091-2.953,0.294
		c-4.693,1.897-7.589,7.777-8.302,12.491c-1.483,10.211,4.252,20.718,16.586,30.386c8.943,7.013,16.397,10.421,22.785,10.421
		c4.418,0,8.151-1.635,11.06-4.821c2.18-2.318,3.239-4.632,3.148-6.877l-0.006-0.108C66.818,57.516,63.379,54.879,61.052,53.096z
		 M58.849,64.041c-1.606,1.759-3.488,2.579-5.925,2.579c-3.229,0-9.053-1.549-18.467-8.93c-7.145-5.601-15.369-14.288-13.979-23.851
		c0.376-2.49,1.85-5.649,3.501-6.759c0.483,0.27,1.161,0.795,1.456,1.023l0.308,0.234c1.144,0.81,2.217,1.839,3.354,2.928
		l0.468,0.446c0.684,0.683,1.223,1.223,1.587,1.789c0.215,0.339,0.236,0.491,0.237,0.491c-0.02,0.309-0.661,1.286-1.029,1.847
		c-0.297,0.444-1.573,1.913-2.579,3.005l-0.162,0.189c-1.711,2.147-0.633,4.394,2.602,8.932c1.227,1.732,2.66,3.384,4.26,4.912
		c1.467,1.399,3.206,2.761,5.169,4.049c2.169,1.54,5.088,3.354,6.805,3.354l1.538-0.027l2.969-2.967
		c0.298-0.297,0.597-0.635,0.902-0.985c0.21-0.24,0.52-0.593,0.763-0.828c0.851,0.459,2.268,1.632,2.93,2.18
		c0.512,0.424,0.971,0.8,1.29,1.036c1.239,0.951,3.094,2.372,3.286,3.51C60.091,62.349,59.882,62.942,58.849,64.041z"/>
</g>
</svg>
