<?xml version="1.0" encoding="utf-8"?>
<!-- Generator: Adobe Illustrator 14.0.0, SVG Export Plug-In . SVG Version: 6.00 Build 43363)  -->
<!DOCTYPE svg PUBLIC "-//W3C//DTD SVG 1.1//EN" "http://www.w3.org/Graphics/SVG/1.1/DTD/svg11.dtd">
<svg version="1.1" id="Calque_1" xmlns="http://www.w3.org/2000/svg" xmlns:xlink="http://www.w3.org/1999/xlink" x="0px" y="0px"
	 width="41.197px" height="39.805px" viewBox="0 0 41.197 39.805" enable-background="new 0 0 41.197 39.805" xml:space="preserve">
<g>
	<path fill="#B3B2B2" d="M19.12,31.479h-4.387v4.387h-4.574v4.135H0v-7.045l14.572-14.574c0.4,0.954,0.896,1.863,1.477,2.714
		L2.999,34.198v2.803h4.16v-4.135h4.574v-4.387h6.144l2.865-2.916c0.907,0.555,1.88,1.021,2.91,1.385L19.12,31.479z M33.586,11.811
		c-1.158,1.158-3.04,1.159-4.198,0c-1.16-1.16-1.16-3.04,0-4.2c1.158-1.159,3.04-1.159,4.198,0
		C34.746,8.771,34.746,10.65,33.586,11.811 M28.787,0c-6.855,0-12.412,5.558-12.412,12.412s5.556,12.411,12.412,12.411
		c6.856,0,12.411-5.556,12.411-12.412C41.197,5.558,35.643,0,28.787,0 M28.787,21.823c-5.189,0-9.413-4.221-9.413-9.412
		C19.374,7.223,23.597,3,28.787,3c5.19,0,9.413,4.223,9.413,9.411C38.199,17.602,33.977,21.823,28.787,21.823"/>
</g>
</svg>
