<?xml version="1.0" encoding="utf-8"?>
<!-- Generator: Adobe Illustrator 14.0.0, SVG Export Plug-In . SVG Version: 6.00 Build 43363)  -->
<!DOCTYPE svg PUBLIC "-//W3C//DTD SVG 1.1//EN" "http://www.w3.org/Graphics/SVG/1.1/DTD/svg11.dtd">
<svg version="1.1" id="Calque_1" xmlns="http://www.w3.org/2000/svg" xmlns:xlink="http://www.w3.org/1999/xlink" x="0px" y="0px"
	 width="65.235px" height="47.783px" viewBox="0 0 65.235 47.783" enable-background="new 0 0 65.235 47.783" xml:space="preserve">
<g>
	<path d="M65.235-0.02l-2.02,6.337h-4.751l-9.377,29.818H13.103L0,6.082h47.024l-7.292,23.566h4.773L53.83-0.02H65.235z
		 M37.993,39.278c-2.353,0-4.262,1.909-4.262,4.262c0,2.354,1.909,4.263,4.262,4.263c2.354,0,4.261-1.909,4.261-4.263
		C42.254,41.188,40.347,39.278,37.993,39.278 M23.908,39.278c-2.354,0-4.26,1.909-4.26,4.262c0,2.354,1.907,4.263,4.26,4.263
		c2.354,0,4.263-1.909,4.263-4.263C28.17,41.188,26.262,39.278,23.908,39.278"/>
</g>
</svg>
