<?xml version="1.0" encoding="utf-8"?>
<!-- Generator: Adobe Illustrator 14.0.0, SVG Export Plug-In . SVG Version: 6.00 Build 43363)  -->
<!DOCTYPE svg PUBLIC "-//W3C//DTD SVG 1.1//EN" "http://www.w3.org/Graphics/SVG/1.1/DTD/svg11.dtd">
<svg version="1.1" id="Calque_1" xmlns="http://www.w3.org/2000/svg" xmlns:xlink="http://www.w3.org/1999/xlink" x="0px" y="0px"
	 width="43.331px" height="40.001px" viewBox="0 0 43.331 40.001" enable-background="new 0 0 43.331 40.001" xml:space="preserve">
<g>
	<path fill="#87B68F" d="M38.779,12.875c0.845,2.213,1.309,4.615,1.309,7.125c0,11.045-8.955,20.001-20,20.001
		c-11.046,0-20-8.956-20-20.001c0-11.046,8.954-20,20-20c4.68,0,8.983,1.608,12.391,4.301c-1.194,0.909-2.341,1.838-3.467,2.809
		c-2.602-1.811-5.688-2.785-8.924-2.785c-4.187,0-8.124,1.631-11.085,4.592C6.043,11.876,4.412,15.813,4.412,20
		c0,4.188,1.631,8.124,4.591,11.084c2.961,2.961,6.898,4.592,11.085,4.592c4.188,0,8.123-1.631,11.084-4.592
		c2.961-2.961,4.591-6.896,4.591-11.084c0-1.01-0.095-2.005-0.28-2.975C36.58,15.54,37.672,14.167,38.779,12.875 M22.688,31.375
		c7.812-14.008,13.236-21.208,20.644-27.672l-0.963-2.214c-8.982,5.588-13.814,9.798-21.127,18.097
		c-3.89-2.771-6.085-4.047-9.546-5.721l-2.959,2.735C14.654,22.084,17.869,25.702,22.688,31.375"/>
</g>
</svg>
